<svg width="111" height="95" viewBox="0 0 111 95" fill="none" xmlns="http://www.w3.org/2000/svg">
<rect x="16.1156" y="46.7244" width="78.0558" height="24.7222" rx="12.3611" transform="rotate(-31.344 16.1156 46.7244)" fill="#F8F1ED"/>
<rect x="28.386" y="72.7942" width="70.6058" height="26.5412" rx="13.2706" transform="rotate(-36.4905 28.386 72.7942)" fill="#F8F1ED"/>
<rect x="3.5" y="37" width="2" height="9" rx="1" fill="#32363F"/>
<rect y="42.5" width="2" height="9" rx="1" transform="rotate(-90 0 42.5)" fill="#32363F"/>
<rect x="25.5" y="11.3516" width="1.91157" height="5.01423" rx="0.955785" transform="rotate(-45 25.5 11.3516)" fill="#D9D9D9"/>
<rect x="29.0457" y="10" width="1.91157" height="5.01423" rx="0.955785" transform="rotate(45 29.0457 10)" fill="#D9D9D9"/>
<rect x="13.5" y="81.3516" width="1.91157" height="5.01423" rx="0.955785" transform="rotate(-45 13.5 81.3516)" fill="#D9D9D9"/>
<rect x="17.0457" y="80" width="1.91157" height="5.01423" rx="0.955785" transform="rotate(45 17.0457 80)" fill="#D9D9D9"/>
<rect x="99.5" width="3" height="9" rx="1.5" fill="#32363F"/>
<rect x="96.5" y="6" width="3" height="9" rx="1.5" transform="rotate(-90 96.5 6)" fill="#32363F"/>
<rect x="104.5" y="69" width="3" height="9" rx="1.5" fill="#32363F"/>
<rect x="101.5" y="75" width="3" height="9" rx="1.5" transform="rotate(-90 101.5 75)" fill="#32363F"/>
<path d="M48.4806 72.4161L48.6878 65.5781H86.4001L86.6073 72.0016C87.0339 75.1321 85.9683 76.1376 82.2559 76.1458H47.0302C47.51 74.8043 47.6546 73.9821 48.4806 72.4161Z" fill="#FF5C00"/>
<path d="M38.1201 33.8746H28.7957V27.2439C28.7957 21.8565 38.1201 21.2348 38.1201 27.2439V33.8746Z" fill="#FF5C00"/>
<path d="M38.9489 27.244C37.9128 25.3791 37.0437 24.0367 35.2191 22.8926L74.7962 23.0998C79.7693 23.307 81.427 25.7935 81.427 30.1449V64.749H47.8589V71.7942C47.8589 79.0465 39.1561 77.8032 38.9489 71.7942V27.244Z" fill="#FFC85D"/>
<path d="M38.5345 34.2893V27.2442C38.5345 24.3432 35.6821 22.8567 33.7687 22.7442M38.5345 34.2893H28.3812V27.2442C28.3812 24.136 31.7001 22.6224 33.7687 22.7442M38.5345 34.2893V71.7943C38.5345 77.8034 48.2734 79.4611 48.2734 71.7943V65.1636H81.8414M33.7687 22.7442H74.7963C79.7158 23.3286 81.2927 24.8783 81.8414 29.9379V65.1636M81.8414 65.1636H86.8145V71.7943C86.5689 75.3464 85.5099 76.4196 81.8414 76.5601H45.7869M63.8141 38.4335H73.1386M63.8141 44.857H73.1386M63.8141 51.0733H73.1386M47.6518 57.0824H73.7602" stroke="black" stroke-width="2"/>
<path d="M47.2656 43.4844L51.4219 48.0781L59.7344 38.2344" stroke="black" stroke-width="1.5" stroke-linecap="round" stroke-linejoin="round"/>
</svg>
