<svg width="111" height="95" viewBox="0 0 111 95" fill="none" xmlns="http://www.w3.org/2000/svg">
<rect x="16.1156" y="46.7244" width="78.0558" height="24.7222" rx="12.3611" transform="rotate(-31.344 16.1156 46.7244)" fill="#F6F6F6"/>
<rect x="28.386" y="72.7942" width="70.6058" height="26.5412" rx="13.2706" transform="rotate(-36.4905 28.386 72.7942)" fill="#F6F6F6"/>
<rect x="3.5" y="37" width="2" height="9" rx="1" fill="#32363F"/>
<rect y="42.5" width="2" height="9" rx="1" transform="rotate(-90 0 42.5)" fill="#32363F"/>
<rect x="25.5" y="11.3516" width="1.91157" height="5.01423" rx="0.955785" transform="rotate(-45 25.5 11.3516)" fill="#D9D9D9"/>
<rect x="29.0457" y="10" width="1.91157" height="5.01423" rx="0.955785" transform="rotate(45 29.0457 10)" fill="#D9D9D9"/>
<rect x="13.5" y="81.3516" width="1.91157" height="5.01423" rx="0.955785" transform="rotate(-45 13.5 81.3516)" fill="#D9D9D9"/>
<rect x="17.0457" y="80" width="1.91157" height="5.01423" rx="0.955785" transform="rotate(45 17.0457 80)" fill="#D9D9D9"/>
<rect x="99.5" width="3" height="9" rx="1.5" fill="#32363F"/>
<rect x="96.5" y="6" width="3" height="9" rx="1.5" transform="rotate(-90 96.5 6)" fill="#32363F"/>
<rect x="104.5" y="69" width="3" height="9" rx="1.5" fill="#32363F"/>
<rect x="101.5" y="75" width="3" height="9" rx="1.5" transform="rotate(-90 101.5 75)" fill="#32363F"/>
<path d="M48.4806 72.4161L48.6878 65.5781H86.4001L86.6073 72.0016C87.0339 75.1321 85.9683 76.1376 82.2559 76.1458H47.0302C47.51 74.8043 47.6546 73.9821 48.4806 72.4161Z" fill="#999999"/>
<path d="M38.1201 33.8746H28.7957V27.2439C28.7957 21.8565 38.1201 21.2348 38.1201 27.2439V33.8746Z" fill="#999999"/>
<path d="M38.9489 27.244C37.9128 25.3791 37.0437 24.0367 35.2191 22.8926L74.7962 23.0998C79.7693 23.307 81.427 25.7935 81.427 30.1449V64.749H47.8589V71.7942C47.8589 79.0465 39.1561 77.8032 38.9489 71.7942V27.244Z" fill="#EBEBEB"/>
<path d="M38.5345 34.2891V27.2439C38.5345 24.3429 35.6821 22.8565 33.7687 22.7439M38.5345 34.2891H28.3812V27.2439C28.3812 24.1357 31.7001 22.6222 33.7687 22.7439M38.5345 34.2891V71.794C38.5345 77.8031 48.2734 79.4608 48.2734 71.794V65.1633H81.8414M33.7687 22.7439H74.7963C79.7158 23.3283 81.2927 24.878 81.8414 29.9376V65.1633M81.8414 65.1633H86.8145V71.794C86.5689 75.3461 85.5099 76.4194 81.8414 76.5599H45.7869M63.8141 38.4332H73.1386M63.8141 44.8567H73.1386M63.8141 51.073H73.1386M47.6518 57.0821H73.7602" stroke="#2C2C2C" stroke-width="2"/>
<path fill-rule="evenodd" clip-rule="evenodd" d="M51.8804 37.3416C51.3985 37.7028 51.1808 38.1357 51.1808 38.5397C51.1808 38.9446 51.3985 39.3775 51.8804 39.7396C52.3631 40.1016 53.0697 40.3517 53.8874 40.3517C54.1193 40.3517 54.3418 40.4438 54.5058 40.6078C54.6698 40.7718 54.7619 40.9943 54.7619 41.2262C54.7619 41.4582 54.6698 41.6806 54.5058 41.8446C54.3418 42.0086 54.1193 42.1007 53.8874 42.1007C52.7278 42.1007 51.6443 41.7492 50.831 41.1388C50.0177 40.5284 49.4318 39.6189 49.4318 38.5406C49.4318 37.4615 50.0177 36.552 50.831 35.9416C51.6443 35.332 52.7287 34.9805 53.8874 34.9805C55.6828 34.9805 57.3802 35.8401 58.0553 37.2717C58.1043 37.3756 58.1323 37.4882 58.1378 37.6029C58.1433 37.7177 58.1261 37.8324 58.0872 37.9406C58.0484 38.0487 57.9886 38.1481 57.9113 38.2331C57.8341 38.3181 57.7408 38.3871 57.6369 38.4361C57.5329 38.4851 57.4204 38.5131 57.3056 38.5186C57.1908 38.5241 57.0761 38.5069 56.968 38.468C56.8599 38.4292 56.7604 38.3694 56.6754 38.2921C56.5904 38.2148 56.5214 38.1216 56.4724 38.0176C56.1664 37.3644 55.2114 36.7295 53.8883 36.7295C53.0706 36.7295 52.3631 36.9796 51.8804 37.3416Z" fill="black"/>
<path fill-rule="evenodd" clip-rule="evenodd" d="M55.6059 45.1099C56.0877 44.7487 56.3046 44.3159 56.3046 43.9118C56.3046 43.5069 56.0877 43.0732 55.605 42.712C55.1231 42.35 54.4156 42.0998 53.5989 42.0998C53.3669 42.0998 53.1445 42.0077 52.9805 41.8437C52.8165 41.6797 52.7243 41.4573 52.7243 41.2253C52.7243 40.9934 52.8165 40.771 52.9805 40.607C53.1445 40.443 53.3669 40.3508 53.5989 40.3508C54.7585 40.3508 55.842 40.7024 56.6553 41.3128C57.4686 41.9232 58.0536 42.8327 58.0536 43.911C58.0536 44.9892 57.4686 45.8996 56.6544 46.5091C55.8411 47.1195 54.7585 47.4711 53.5989 47.4711C51.8035 47.4711 50.1052 46.6114 49.4309 45.179C49.332 44.9692 49.3205 44.7287 49.3989 44.5104C49.4773 44.2922 49.6392 44.1139 49.849 44.015C50.0587 43.9161 50.2992 43.9046 50.5175 43.983C50.7358 44.0614 50.914 44.2233 51.0129 44.433C51.3208 45.0872 52.2757 45.7221 53.5989 45.7221C54.4165 45.7221 55.1231 45.472 55.6059 45.1099ZM53.7195 33.2314C53.9515 33.2314 54.1739 33.3236 54.3379 33.4876C54.5019 33.6516 54.594 33.874 54.594 34.106V34.9805C54.594 35.2124 54.5019 35.4348 54.3379 35.5988C54.1739 35.7628 53.9515 35.855 53.7195 35.855C53.4876 35.855 53.2652 35.7628 53.1012 35.5988C52.9372 35.4348 52.845 35.2124 52.845 34.9805V34.106C52.845 33.874 52.9372 33.6516 53.1012 33.4876C53.2652 33.3236 53.4876 33.2314 53.7195 33.2314Z" fill="black"/>
<path fill-rule="evenodd" clip-rule="evenodd" d="M53.7195 46.3491C53.9514 46.3491 54.1738 46.4413 54.3379 46.6053C54.5019 46.7693 54.594 46.9917 54.594 47.2236V48.0981C54.594 48.3301 54.5019 48.5525 54.3379 48.7165C54.1738 48.8805 53.9514 48.9727 53.7195 48.9727C53.4875 48.9727 53.2651 48.8805 53.1011 48.7165C52.9371 48.5525 52.845 48.3301 52.845 48.0981V47.2236C52.845 46.9917 52.9371 46.7693 53.1011 46.6053C53.2651 46.4413 53.4875 46.3491 53.7195 46.3491Z" fill="black"/>
</svg>
