<svg t="1661744775796" class="icon" viewBox="0 0 1024 1024" version="1.1" xmlns="http://www.w3.org/2000/svg" p-id="1273" width="32" height="32">
  <path d="M954.170826 0H65.469549C34.095932 0 21.895081 18.954894 21.895081 51.635745V984.782979C21.895081 1017.681702 34.095932 1024 65.469549 1024h888.701277c31.809362 0 47.931915-6.318298 47.931914-39.217021V51.635745C1002.320613 18.954894 985.980187 0 954.170826 0zM958.746145 980.425532H61.547847 65.469549V672.789787h893.276596z m0-348.595745H65.469549V345.981277h-3.921702l3.921702-2.178724v1.960851h893.276596z m0-326.80851H65.469549V43.574468h-3.921702v-1.525106H65.469549V43.574468h893.276596z m-174.297873-108.936171h87.148937a21.787234 21.787234 0 0 0 21.787234-21.787234V152.510638a21.787234 21.787234 0 0 0-21.787234-21.787234h-87.148937a21.787234 21.787234 0 0 0-21.787234 21.787234v21.787234a21.787234 21.787234 0 0 0 21.787234 21.787234z m0 326.808511h87.148937a21.787234 21.787234 0 0 0 21.787234-21.787234v-21.787234a21.787234 21.787234 0 0 0-21.787234-21.787234h-87.148937a21.787234 21.787234 0 0 0-21.787234 21.787234v21.787234a21.787234 21.787234 0 0 0 21.787234 21.787234z m0 326.808511h87.148937a21.787234 21.787234 0 0 0 21.787234-21.787234v-21.787234a21.787234 21.787234 0 0 0-21.787234-21.787234h-87.148937a21.787234 21.787234 0 0 0-21.787234 21.787234v21.787234a21.787234 21.787234 0 0 0 21.787234 21.787234z" fill="#1F212B" p-id="1274"></path>
</svg>