<svg width="16" height="16" viewBox="0 0 16 16" fill="none" xmlns="http://www.w3.org/2000/svg">
<path d="M9.63636 5H11.2727C11.6309 5 11.9855 5.07054 12.3164 5.2076C12.6473 5.34466 12.9479 5.54555 13.2012 5.7988C13.4545 6.05205 13.6553 6.3527 13.7924 6.68359C13.9295 7.01448 14 7.36912 14 7.72727C14 8.08542 13.9295 8.44007 13.7924 8.77096C13.6553 9.10184 13.4545 9.4025 13.2012 9.65575C12.9479 9.909 12.6473 10.1099 12.3164 10.2469C11.9855 10.384 11.6309 10.4545 11.2727 10.4545H9.63636M6.36364 10.4545H4.72727C4.36912 10.4545 4.01448 10.384 3.68359 10.2469C3.3527 10.1099 3.05205 9.909 2.7988 9.65575C2.28734 9.14428 2 8.45059 2 7.72727C2 7.00396 2.28734 6.31026 2.7988 5.7988C3.31026 5.28734 4.00396 5 4.72727 5H6.36364" stroke="#0D1821" stroke-width="1.4" stroke-linecap="round" stroke-linejoin="round"/>
<path d="M5.81836 7.72729H10.182" stroke="#0D1821" stroke-width="1.4" stroke-linecap="round" stroke-linejoin="round"/>
</svg>
