<svg width="18" height="18" viewBox="0 0 18 18" fill="none" xmlns="http://www.w3.org/2000/svg">
<path d="M12.5624 2.67V1.5C12.5624 1.1925 12.3074 0.9375 11.9999 0.9375C11.6924 0.9375 11.4374 1.1925 11.4374 1.5V2.625H6.56243V1.5C6.56243 1.1925 6.30743 0.9375 5.99993 0.9375C5.69243 0.9375 5.43743 1.1925 5.43743 1.5V2.67C3.41243 2.8575 2.42993 4.065 2.27993 5.8575C2.26493 6.075 2.44493 6.255 2.65493 6.255H15.3449C15.5624 6.255 15.7424 6.0675 15.7199 5.8575C15.5699 4.065 14.5874 2.8575 12.5624 2.67Z" fill="#0D1821"/>
<path d="M15 7.38H3C2.5875 7.38 2.25 7.7175 2.25 8.13V12.75C2.25 15 3.375 16.5 6 16.5H12C14.625 16.5 15.75 15 15.75 12.75V8.13C15.75 7.7175 15.4125 7.38 15 7.38ZM6.9075 13.6575C6.87 13.6875 6.8325 13.725 6.795 13.7475C6.75 13.7775 6.705 13.8 6.66 13.815C6.615 13.8375 6.57 13.8525 6.525 13.86C6.4725 13.8675 6.4275 13.875 6.375 13.875C6.2775 13.875 6.18 13.8525 6.09 13.815C5.9925 13.7775 5.9175 13.725 5.8425 13.6575C5.7075 13.515 5.625 13.32 5.625 13.125C5.625 12.93 5.7075 12.735 5.8425 12.5925C5.9175 12.525 5.9925 12.4725 6.09 12.435C6.225 12.375 6.375 12.36 6.525 12.39C6.57 12.3975 6.615 12.4125 6.66 12.435C6.705 12.45 6.75 12.4725 6.795 12.5025C6.8325 12.5325 6.87 12.5625 6.9075 12.5925C7.0425 12.735 7.125 12.93 7.125 13.125C7.125 13.32 7.0425 13.515 6.9075 13.6575ZM6.9075 11.0325C6.765 11.1675 6.57 11.25 6.375 11.25C6.18 11.25 5.985 11.1675 5.8425 11.0325C5.7075 10.89 5.625 10.695 5.625 10.5C5.625 10.305 5.7075 10.11 5.8425 9.9675C6.0525 9.7575 6.3825 9.69 6.66 9.81C6.7575 9.8475 6.84 9.9 6.9075 9.9675C7.0425 10.11 7.125 10.305 7.125 10.5C7.125 10.695 7.0425 10.89 6.9075 11.0325ZM9.5325 13.6575C9.39 13.7925 9.195 13.875 9 13.875C8.805 13.875 8.61 13.7925 8.4675 13.6575C8.3325 13.515 8.25 13.32 8.25 13.125C8.25 12.93 8.3325 12.735 8.4675 12.5925C8.745 12.315 9.255 12.315 9.5325 12.5925C9.6675 12.735 9.75 12.93 9.75 13.125C9.75 13.32 9.6675 13.515 9.5325 13.6575ZM9.5325 11.0325C9.495 11.0625 9.4575 11.0925 9.42 11.1225C9.375 11.1525 9.33 11.175 9.285 11.19C9.24 11.2125 9.195 11.2275 9.15 11.235C9.0975 11.2425 9.0525 11.25 9 11.25C8.805 11.25 8.61 11.1675 8.4675 11.0325C8.3325 10.89 8.25 10.695 8.25 10.5C8.25 10.305 8.3325 10.11 8.4675 9.9675C8.535 9.9 8.6175 9.8475 8.715 9.81C8.9925 9.69 9.3225 9.7575 9.5325 9.9675C9.6675 10.11 9.75 10.305 9.75 10.5C9.75 10.695 9.6675 10.89 9.5325 11.0325ZM12.1575 13.6575C12.015 13.7925 11.82 13.875 11.625 13.875C11.43 13.875 11.235 13.7925 11.0925 13.6575C10.9575 13.515 10.875 13.32 10.875 13.125C10.875 12.93 10.9575 12.735 11.0925 12.5925C11.37 12.315 11.88 12.315 12.1575 12.5925C12.2925 12.735 12.375 12.93 12.375 13.125C12.375 13.32 12.2925 13.515 12.1575 13.6575ZM12.1575 11.0325C12.12 11.0625 12.0825 11.0925 12.045 11.1225C12 11.1525 11.955 11.175 11.91 11.19C11.865 11.2125 11.82 11.2275 11.775 11.235C11.7225 11.2425 11.67 11.25 11.625 11.25C11.43 11.25 11.235 11.1675 11.0925 11.0325C10.9575 10.89 10.875 10.695 10.875 10.5C10.875 10.305 10.9575 10.11 11.0925 9.9675C11.1675 9.9 11.2425 9.8475 11.34 9.81C11.475 9.75 11.625 9.73501 11.775 9.76501C11.82 9.77251 11.865 9.7875 11.91 9.81C11.955 9.825 12 9.8475 12.045 9.8775C12.0825 9.9075 12.12 9.9375 12.1575 9.9675C12.2925 10.11 12.375 10.305 12.375 10.5C12.375 10.695 12.2925 10.89 12.1575 11.0325Z" fill="#0D1821"/>
</svg>
