<svg width="24" height="24" viewBox="0 0 24 24" fill="none" xmlns="http://www.w3.org/2000/svg">
<path d="M4.28572 7.94286L4.28551 7.94286C3.89165 7.94327 3.51405 8.09991 3.23555 8.3784C2.95706 8.6569 2.80041 9.03451 2.8 9.42836L2.8 9.42857L2.8 19.7143L2.8 19.7145C2.80041 20.1083 2.95705 20.486 3.23555 20.7644C3.51405 21.0429 3.89165 21.1996 4.28551 21.2L4.28572 21.2L19.7143 21.2L19.7145 21.2C20.1083 21.1996 20.486 21.0429 20.7644 20.7644C21.0429 20.486 21.1996 20.1083 21.2 19.7145L21.2 19.7143L21.2 9.42857L21.2 9.42836C21.1996 9.03451 21.0429 8.6569 20.7645 8.37841C20.486 8.09991 20.1084 7.94327 19.7145 7.94286L19.7143 7.94286L17.1429 7.94286L16.9429 7.94286L16.9429 8.14286L16.9429 9.42857L16.9429 9.62857L17.1429 9.62857L19.5143 9.62857L19.5143 19.5143L4.48572 19.5143L4.48572 9.62857L6.85714 9.62857L7.05714 9.62857L7.05714 9.42857L7.05714 8.14286L7.05714 7.94286L6.85714 7.94286L4.28572 7.94286Z" fill="#0D1821" stroke="#0D1821" stroke-width="0.4"/>
<path d="M12.0017 10.9143L12.0019 10.9143C13.0775 10.9131 14.1087 10.4852 14.8692 9.72468C15.6298 8.96413 16.0576 7.93296 16.0588 6.85737V6.85714C16.0588 6.05472 15.8209 5.27031 15.3751 4.60312C14.9293 3.93592 14.2956 3.41591 13.5543 3.10883C12.8129 2.80176 11.9972 2.72141 11.2102 2.87796C10.4232 3.0345 9.70024 3.42091 9.13284 3.98831C8.56544 4.55571 8.17904 5.27863 8.02249 6.06564C7.86594 6.85264 7.94629 7.6684 8.25336 8.40975C8.56044 9.15109 9.08046 9.78473 9.74765 10.2305C10.4148 10.6763 11.1992 10.9143 12.0017 10.9143ZM10.6842 4.88537C11.0741 4.62482 11.5326 4.48574 12.0016 4.48572C12.6303 4.48645 13.2331 4.73654 13.6777 5.18114C14.1223 5.62576 14.3724 6.22858 14.3731 6.85737C14.3731 7.32632 14.234 7.78472 13.9734 8.17464C13.7129 8.56462 13.3425 8.86857 12.9092 9.04806C12.4759 9.22755 11.999 9.27451 11.539 9.18301C11.079 9.09151 10.6565 8.86565 10.3248 8.534C9.99317 8.20235 9.76732 7.7798 9.67581 7.31979C9.58431 6.85978 9.63127 6.38296 9.81076 5.94964C9.99025 5.51632 10.2942 5.14595 10.6842 4.88537Z" fill="#0D1821" stroke="#0D1821" stroke-width="0.4"/>
</svg>
