<svg width="132" height="113" viewBox="0 0 132 113" fill="none" xmlns="http://www.w3.org/2000/svg">
<path fill-rule="evenodd" clip-rule="evenodd" d="M118.919 8.74403H8.74403V97.0587H118.919V8.74403ZM0 0V105.803H127.663V0H0Z" fill="#7918F5"/>
<path d="M62.082 55.9619H131.16V112.798H62.082V55.9619Z" fill="white"/>
<path fill-rule="evenodd" clip-rule="evenodd" d="M125.039 31.4784H2.62305V22.7344H125.039V31.4784Z" fill="#7918F5"/>
<path fill-rule="evenodd" clip-rule="evenodd" d="M62.0821 69.078L19.2363 69.078L19.2363 60.334L62.0821 60.334L62.0821 69.078Z" fill="#0D1821"/>
<path fill-rule="evenodd" clip-rule="evenodd" d="M62.0821 52.4638L19.2363 52.4638L19.2363 43.7197L62.0821 43.7197L62.0821 52.4638Z" fill="#0D1821"/>
<path fill-rule="evenodd" clip-rule="evenodd" d="M126 71.4842L88.6055 111L70 91.4078L75.6752 85.9136L88.5955 99.5191L120.315 66L126 71.4842Z" fill="#D8DCDE"/>
</svg>
