<svg width="24" height="24" viewBox="0 0 24 24" fill="none" xmlns="http://www.w3.org/2000/svg">
<rect width="24" height="24" fill="white" style="mix-blend-mode:multiply"/>
<path d="M9.24286 15.2238V15.1238H9.14286H4.85714H4.75714V15.2238V16.6986V16.7986H4.85714H9.14286H9.24286V16.6986V15.2238ZM12.1 11.1492V11.0492H12H4.85714H4.75714V11.1492V12.624V12.724H4.85714H12H12.1V12.624V11.1492ZM12.1 7.07461V6.97461H12H4.85714H4.75714V7.07461V8.54942V8.64942H4.85714H12H12.1V8.54942V7.07461ZM10.6714 19.2229V19.1229H10.5714H3.52857V4.57481H20.4714V11.8488V11.9488H20.5714H22H22.1V11.8488V4.47481C22.1 4.05815 21.9397 3.65794 21.6534 3.36238C21.367 3.06672 20.9779 2.9 20.5714 2.9H3.42857C3.02212 2.9 2.63299 3.06672 2.34659 3.36238C2.0603 3.65794 1.9 4.05815 1.9 4.47481V19.2229C1.9 19.6395 2.0603 20.0397 2.34659 20.3353C2.63299 20.6309 3.02212 20.7977 3.42857 20.7977H10.5714H10.6714V20.6977V19.2229ZM16.2857 18.7768L14.5075 16.9411L14.4357 16.8669L14.3639 16.9411L13.3567 17.9808L13.2893 18.0504L13.3567 18.12L16.2139 21.0696L16.2857 21.1437L16.3575 21.0696L22.0718 15.1704L22.1392 15.1008L22.0718 15.0312L21.0647 13.9915L20.9929 13.9173L20.921 13.9915L16.2857 18.7768Z" fill="#0D1821" stroke="black" stroke-width="0.2"/>
</svg>
