<svg width="24" height="24" viewBox="0 0 24 24" fill="none" xmlns="http://www.w3.org/2000/svg">
<path fill-rule="evenodd" clip-rule="evenodd" d="M10.6034 10.3233C10.1735 10.3233 9.82499 10.6718 9.82499 11.1017V19.1855C9.82499 19.6155 10.1735 19.964 10.6034 19.964H18.6872C19.1172 19.964 19.4657 19.6155 19.4657 19.1855V11.1017C19.4657 10.6718 19.1172 10.3233 18.6872 10.3233H10.6034ZM7.78906 11.1017C7.78906 9.54739 9.0491 8.28735 10.6034 8.28735H18.6872C20.2416 8.28735 21.5016 9.54739 21.5016 11.1017V19.1855C21.5016 20.7399 20.2416 21.9999 18.6872 21.9999H10.6034C9.0491 21.9999 7.78906 20.7399 7.78906 19.1855V11.1017Z" fill="#0D1821"/>
<path fill-rule="evenodd" clip-rule="evenodd" d="M4.31632 4.03592C4.10986 4.03592 3.91186 4.11794 3.76588 4.26392C3.61989 4.40991 3.53788 4.60791 3.53788 4.81437V12.8982C3.53788 13.1046 3.61989 13.3026 3.76588 13.4486C3.91186 13.5946 4.10986 13.6766 4.31632 13.6766H5.21452C5.77672 13.6766 6.23248 14.1324 6.23248 14.6946C6.23248 15.2568 5.77672 15.7125 5.21452 15.7125H4.31632C3.5699 15.7125 2.85406 15.416 2.32626 14.8882C1.79847 14.3604 1.50195 13.6446 1.50195 12.8982V4.81437C1.50195 4.06795 1.79847 3.3521 2.32626 2.82431C2.85406 2.29651 3.5699 2 4.31632 2H12.4001C13.1466 2 13.8624 2.29651 14.3902 2.82431C14.918 3.3521 15.2145 4.06795 15.2145 4.81437V5.71257C15.2145 6.27477 14.7587 6.73053 14.1965 6.73053C13.6343 6.73053 13.1786 6.27477 13.1786 5.71257V4.81437C13.1786 4.60791 13.0966 4.40991 12.9506 4.26392C12.8046 4.11794 12.6066 4.03592 12.4001 4.03592H4.31632Z" fill="#0D1821"/>
</svg>
