<svg width="17" height="17" viewBox="0 0 17 17" fill="none" xmlns="http://www.w3.org/2000/svg">
<path d="M6.37508 15.5837H10.6251C14.1667 15.5837 15.5834 14.167 15.5834 10.6253V6.37533C15.5834 2.83366 14.1667 1.41699 10.6251 1.41699H6.37508C2.83341 1.41699 1.41675 2.83366 1.41675 6.37533V10.6253C1.41675 14.167 2.83341 15.5837 6.37508 15.5837Z" stroke="#2F3840" stroke-width="1.2" stroke-linecap="round" stroke-linejoin="round"/>
<path d="M1.41675 9.20826H4.08008C4.61842 9.20826 5.10717 9.51284 5.348 9.99451L5.97841 11.2624C6.37508 12.0416 7.08341 12.0416 7.25341 12.0416H9.75383C10.2922 12.0416 10.7809 11.737 11.0217 11.2553L11.6522 9.98742C11.893 9.50576 12.3817 9.20117 12.9201 9.20117H15.5692" stroke="#2F3840" stroke-width="1.2" stroke-linecap="round" stroke-linejoin="round"/>
<path d="M7.32422 4.95801H9.68297" stroke="#2F3840" stroke-width="1.2" stroke-linecap="round" stroke-linejoin="round"/>
<path d="M6.72925 7.08301H10.2709" stroke="#2F3840" stroke-width="1.2" stroke-linecap="round" stroke-linejoin="round"/>
</svg>
