<svg t="1661743850466" class="icon" viewBox="0 0 1024 1024" version="1.1" xmlns="http://www.w3.org/2000/svg" p-id="889" width="32" height="32">
  <path d="M986.304512 514.646016l-66.967552 67.852288c-9.560064 9.560064-22.161408 14.784512-35.561472 14.784512-13.385728 0-25.987072-5.224448-35.46112-14.68416l-67.053568-67.95264c-8.108032-8.220672-8.022016-21.46304 0.198656-29.581312 8.220672-8.12032 21.46304-8.022016 29.581312 0.198656l50.313216 50.987008V329.05216c0-29.753344-16.338944-58.05056-42.651648-73.86112L515.59424 73.848832c-27.353088-16.42496-61.3888-16.494592-88.80128-0.028672L124.116992 255.188992c-26.2144 15.7696-42.539008 44.050432-42.539008 73.86112v370.163712c0 29.638656 16.338944 57.83552 42.651648 73.64608l303.079424 181.153792c27.254784 16.297984 61.259776 16.181248 88.829952-0.370688l305.93024-182.597632c11.300864-6.74816 25.92768-3.065856 32.63488 8.220672 6.74816 11.302912 3.05152 25.901056-8.220672 32.649216l-305.88928 182.56896c-21.434368 12.859392-45.43488 19.294208-69.36576 19.294208a132.653056 132.653056 0 0 1-68.368384-18.92352L99.782656 813.699072c-40.613888-24.387584-65.814528-68.251648-65.814528-114.487296V329.050112c0-46.419968 25.143296-90.355712 65.671168-114.671616l302.678016-181.368832c42.483712-25.544704 95.279104-25.499648 137.762816 0l303.104 181.34016c40.583168 24.385536 65.783808 68.323328 65.783808 114.700288v204.40064l47.546368-48.18944c8.118272-8.216576 21.36064-8.316928 29.581312-0.198656 8.220672 8.118272 8.306688 21.36064 0.208896 29.58336z" fill="#663C99" p-id="890"></path>
  <path d="M274.040832 618.549248l192.743424 116.056064a1.6384 1.6384 0 0 0 0.086016 0.04096c0.07168 0.04096 0.157696 0.086016 0.243712 0.126976a9.377792 9.377792 0 0 0 1.26976 0.600064c0.258048 0.100352 0.514048 0.198656 0.786432 0.284672 0.157696 0.04096 0.315392 0.100352 0.47104 0.14336 0.229376 0.057344 0.47104 0.100352 0.700416 0.157696 0.456704 0.086016 0.927744 0.14336 1.396736 0.172032 0.07168 0.014336 0.126976 0.014336 0.198656 0.028672 0.270336 0.014336 0.557056 0 0.827392-0.014336 0.11264 0 0.243712 0 0.356352-0.014336 0.270336-0.014336 0.54272-0.04096 0.827392-0.07168 0.126976-0.028672 0.258048-0.057344 0.370688-0.07168 0.370688-0.07168 0.72704-0.14336 1.097728-0.258048 0.270336-0.07168 0.528384-0.157696 0.79872-0.258048 0.14336-0.057344 0.284672-0.11264 0.411648-0.172032 0.356352-0.14336 0.700416-0.299008 1.026048-0.487424 0.04096-0.03072 0.086016-0.04096 0.126976-0.07168l0.157696-0.086016 0.028672-0.014336L683.382784 618.7008a10.932224 10.932224 0 0 0 5.55008-9.519104v-141.34272a10.92608 10.92608 0 0 0-21.848064 0v134.979584l-183.754752 103.712768v-191.143936c0-0.841728-0.100352-1.66912-0.284672-2.46784l187.492352-106.237952c7.606272-4.31104 7.3216-15.37024-0.497664-19.279872l-192.743424-96.364544a10.870784 10.870784 0 0 0-9.75872 0l-192.743424 96.364544c-5.124096 2.553856-6.991872 8.175616-5.55008 12.957696a10.5472 10.5472 0 0 0-0.487424 3.239936v205.586432h0.004096v0.002048c0 3.837952 1.9968 7.39328 5.279744 9.361408z m198.37952-305.532928l169.527296 84.764672-169.527296 96.065536-169.527296-96.065536 169.527296-84.764672z m-181.825536 102.90176l171.194368 97.005568c-0.186368 0.79872-0.299008 1.626112-0.299008 2.46784v190.529536l-170.89536-102.899712v-187.103232z" fill="#663C99" p-id="891"></path>
  <path d="M404.680704 524.869632a10.91584 10.91584 0 0 1-14.983168 3.7376l-64.241664-38.54336a10.93632 10.93632 0 0 1-3.751936-14.983168 10.938368 10.938368 0 0 1 14.997504-3.751936l64.241664 38.557696a10.911744 10.911744 0 0 1 3.7376 14.983168z" fill="#663C99" p-id="892"></path>
</svg>