<svg width="24" height="24" viewBox="0 0 24 24" fill="none" xmlns="http://www.w3.org/2000/svg">
<path fill-rule="evenodd" clip-rule="evenodd" d="M21.6828 2.31718C22.0064 2.64075 22.0916 3.13281 21.8957 3.54636L13.4479 21.3807C13.2521 21.794 12.8177 22.0398 12.3626 21.9947C11.9075 21.9496 11.5298 21.6235 11.4189 21.1798L9.69912 14.3009L2.82021 12.5811C2.37652 12.4702 2.05036 12.0925 2.0053 11.6374C1.96023 11.1823 2.20597 10.7479 2.61929 10.5521L20.4536 2.10426C20.8672 1.90837 21.3592 1.9936 21.6828 2.31718ZM6.28071 11.214L10.8546 12.3575C11.2426 12.4545 11.5455 12.7574 11.6425 13.1454L12.786 17.7193L18.6407 5.35929L6.28071 11.214Z" fill="#0D1821" stroke="#0D1821" stroke-width="0.1" stroke-linecap="round" stroke-linejoin="round"/>
</svg>
