<svg width="83" height="30" viewBox="0 0 83 30" fill="none" xmlns="http://www.w3.org/2000/svg">
<path d="M41 2.5C34.1 2.5 28.5 8.1 28.5 15C28.5 21.9 34.1 27.5 41 27.5C47.9 27.5 53.5 21.9 53.5 15C53.5 8.1 47.9 2.5 41 2.5ZM46.0375 15.6625L42.2875 19.4125C42.1 19.6 41.8625 19.6875 41.625 19.6875C41.3875 19.6875 41.15 19.6 40.9625 19.4125C40.6 19.05 40.6 18.45 40.9625 18.0875L43.1125 15.9375H36.625C36.1125 15.9375 35.6875 15.5125 35.6875 15C35.6875 14.4875 36.1125 14.0625 36.625 14.0625H43.1125L40.9625 11.9125C40.6 11.55 40.6 10.95 40.9625 10.5875C41.325 10.225 41.925 10.225 42.2875 10.5875L46.0375 14.3375C46.4 14.7 46.4 15.3 46.0375 15.6625Z" fill="#6E747A"/>
<path fill-rule="evenodd" clip-rule="evenodd" d="M20 19C22.2091 19 24 17.2091 24 15C24 12.7909 22.2091 11 20 11C17.7909 11 16 12.7909 16 15C16 17.2091 17.7909 19 20 19ZM9 18C10.6569 18 12 16.6569 12 15C12 13.3431 10.6569 12 9 12C7.34315 12 6 13.3431 6 15C6 16.6569 7.34315 18 9 18ZM3 15.5C3 16.3284 2.32843 17 1.5 17C0.671573 17 0 16.3284 0 15.5C0 14.6716 0.671573 14 1.5 14C2.32843 14 3 14.6716 3 15.5ZM81.5 17C82.3284 17 83 16.3284 83 15.5C83 14.6716 82.3284 14 81.5 14C80.6716 14 80 14.6716 80 15.5C80 16.3284 80.6716 17 81.5 17ZM76 15C76 16.6569 74.6569 18 73 18C71.3431 18 70 16.6569 70 15C70 13.3431 71.3431 12 73 12C74.6569 12 76 13.3431 76 15ZM62 19C64.2091 19 66 17.2091 66 15C66 12.7909 64.2091 11 62 11C59.7909 11 58 12.7909 58 15C58 17.2091 59.7909 19 62 19Z" fill="url(#paint0_linear_1095_43000)"/>
<defs>
<linearGradient id="paint0_linear_1095_43000" x1="-5.5" y1="15" x2="88.5" y2="15" gradientUnits="userSpaceOnUse">
<stop stop-color="#597EFF" stop-opacity="0.1"/>
<stop offset="0.493895" stop-color="#597EFF"/>
<stop offset="1" stop-color="#597EFF" stop-opacity="0.1"/>
</linearGradient>
</defs>
</svg>
