<svg width="23" height="23" viewBox="0 0 23 23" fill="none" xmlns="http://www.w3.org/2000/svg">
<rect width="23" height="23" fill="white" style="mix-blend-mode:multiply"/>
<path d="M19.4062 2.10625H3.59375C3.19924 2.10625 2.82089 2.26297 2.54193 2.54193C2.26297 2.82089 2.10625 3.19924 2.10625 3.59375V19.4062C2.10625 19.8008 2.26297 20.1791 2.54193 20.4581C2.82089 20.737 3.19924 20.8937 3.59375 20.8937H19.4062C19.8008 20.8937 20.1791 20.737 20.4581 20.4581C20.737 20.1791 20.8937 19.8008 20.8937 19.4062V3.59375C20.8937 3.19924 20.737 2.82089 20.4581 2.54193C20.1791 2.26297 19.8008 2.10625 19.4062 2.10625ZM3.64375 3.64375H19.3563V6.41875H3.64375V3.64375ZM3.64375 19.3563V7.95625H19.3563V19.3563H3.64375Z" fill="#0D1821" stroke="#0D1821" stroke-width="0.1"/>
<path d="M11.5 15.0938C12.2939 15.0938 12.9375 14.4502 12.9375 13.6562C12.9375 12.8623 12.2939 12.2188 11.5 12.2188C10.7061 12.2188 10.0625 12.8623 10.0625 13.6562C10.0625 14.4502 10.7061 15.0938 11.5 15.0938Z" fill="#161616"/>
<path d="M17.0896 13.2814C16.6455 12.1501 15.8791 11.174 14.8855 10.474C13.8919 9.7741 12.7148 9.3811 11.5 9.34375C10.2852 9.3811 9.10805 9.7741 8.11446 10.474C7.12087 11.174 6.3545 12.1501 5.91035 13.2814L5.75 13.6562L5.91035 14.0311C6.3545 15.1624 7.12087 16.1385 8.11446 16.8385C9.10805 17.5384 10.2852 17.9314 11.5 17.9688C12.7148 17.9314 13.8919 17.5384 14.8855 16.8385C15.8791 16.1385 16.6455 15.1624 17.0896 14.0311L17.25 13.6562L17.0896 13.2814ZM11.5 16.5312C10.9314 16.5312 10.3755 16.3626 9.90274 16.0467C9.42994 15.7308 9.06145 15.2818 8.84385 14.7565C8.62624 14.2311 8.56931 13.6531 8.68024 13.0954C8.79117 12.5377 9.06499 12.0254 9.46707 11.6233C9.86914 11.2212 10.3814 10.9474 10.9391 10.8365C11.4968 10.7256 12.0749 10.7825 12.6002 11.0001C13.1256 11.2177 13.5746 11.5862 13.8905 12.059C14.2064 12.5318 14.375 13.0876 14.375 13.6562C14.3741 14.4185 14.071 15.1493 13.532 15.6882C12.993 16.2272 12.2622 16.5304 11.5 16.5312Z" fill="#161616"/>
</svg>
