<svg width="23" height="23" viewBox="0 0 23 23" fill="none" xmlns="http://www.w3.org/2000/svg">
<rect width="23" height="23" fill="white" style="mix-blend-mode:multiply"/>
<path d="M8.58705 13.7063C9.06096 13.7076 9.53043 13.6149 9.96828 13.4336C10.4061 13.2524 10.8037 12.986 11.138 12.6501L11.1732 12.6147L11.1379 12.5795L10.1214 11.5628L10.0868 11.5283L10.0515 11.562C9.65701 11.9384 9.13269 12.1485 8.58741 12.1485C8.04232 12.1485 7.51817 11.9386 7.12375 11.5624C6.93177 11.3704 6.77947 11.1425 6.67554 10.8916C6.57153 10.6406 6.518 10.3716 6.518 10.0998C6.518 9.82814 6.57153 9.55909 6.67554 9.30807C6.77955 9.05706 6.93199 8.82899 7.12416 8.63691L7.12417 8.6369L10.7923 4.96921C10.7925 4.96908 10.7926 4.96895 10.7927 4.96882C11.1872 4.59261 11.7113 4.38271 12.2564 4.38271C12.8015 4.38271 13.3256 4.5926 13.7201 4.9688C14.107 5.35646 14.3245 5.88167 14.3251 6.42942C14.3256 6.97736 14.1088 7.50316 13.7224 7.89159L13.3216 8.29249L13.2862 8.32789L13.3216 8.36323L14.3392 9.37876L14.3746 9.41405L14.4099 9.37871L14.8069 8.98154C14.8069 8.98154 14.8069 8.98153 14.8069 8.98153C15.4832 8.30515 15.8632 7.3878 15.8631 6.43129C15.8631 5.47478 15.4831 4.55746 14.8067 3.88112C14.1303 3.20479 13.213 2.82485 12.2565 2.82488C11.2999 2.82492 10.3826 3.20492 9.7063 3.8813L6.03686 7.55001C5.53241 8.05435 5.18886 8.69696 5.04968 9.39656C4.91049 10.0962 4.98192 10.8213 5.25492 11.4803C5.52792 12.1394 5.99024 12.7026 6.5834 13.0988C7.17651 13.495 7.87379 13.7064 8.58705 13.7063ZM8.58705 13.7063L8.58719 13.6563L8.5872 13.7063C8.58715 13.7063 8.5871 13.7063 8.58705 13.7063ZM14.3371 12.2688C14.8111 12.2701 15.2807 12.1773 15.7187 11.9959C16.1566 11.8146 16.5543 11.5482 16.8886 11.2121C17.0753 11.0248 20.2863 7.81432 20.5569 7.54406L20.5569 7.54401C21.2322 6.86741 21.6113 5.95038 21.6109 4.99443C21.6104 4.03848 21.2304 3.12181 20.5545 2.44587C19.8785 1.76992 18.9618 1.39 18.0059 1.38958C17.0499 1.38916 16.1329 1.76828 15.4563 2.44363L15.4209 2.47898L15.4563 2.51437L16.4728 3.53104L16.5074 3.56558L16.5427 3.53186C16.9372 3.1554 17.4615 2.94536 18.0068 2.94536C18.5518 2.94536 19.076 3.15524 19.4704 3.53142C19.8575 3.91964 20.0749 4.44554 20.0749 4.99381C20.0749 5.54225 19.8574 6.06829 19.47 6.45655C19.2058 6.72021 16.1297 9.79636 15.8176 10.1084L15.8014 10.1246C15.8013 10.1248 15.8011 10.1249 15.801 10.125C15.4066 10.5012 14.8824 10.7111 14.3373 10.7111C13.7922 10.7111 13.2681 10.5012 12.8737 10.125C12.6817 9.93301 12.5295 9.7051 12.4256 9.4543C12.3216 9.2033 12.2681 8.93428 12.2681 8.6626C12.2681 8.39092 12.3216 8.1219 12.4256 7.8709C12.5296 7.61991 12.682 7.39186 12.8741 7.19977C12.8741 7.19977 12.8741 7.19976 12.8741 7.19976L13.2713 6.8028L13.3066 6.76745L13.2713 6.73208L12.2548 5.71534L12.2194 5.67998L12.184 5.71534L11.7869 6.11251C11.2824 6.61685 10.9389 7.25946 10.7997 7.95906C10.6605 8.65867 10.7319 9.38384 11.0049 10.0428C11.2779 10.7019 11.7402 11.2651 12.3334 11.6613C12.9265 12.0575 13.6238 12.2689 14.3371 12.2688ZM14.3371 12.2688L14.3372 12.2188M14.3371 12.2688C14.3371 12.2688 14.3372 12.2688 14.3372 12.2688L14.3372 12.2188M14.3372 12.2188C13.6338 12.2189 12.9461 12.0105 12.3612 11.6197C11.7762 11.229 11.3203 10.6736 11.0511 10.0237C10.7819 9.37384 10.7115 8.65873 10.8487 7.96882C10.986 7.27891 11.3248 6.64521 11.8222 6.14787L20.5215 7.50868C20.2509 7.77893 17.0399 10.9894 16.8532 11.1768C16.5235 11.5082 16.1314 11.7709 15.6995 11.9497C15.2677 12.1286 14.8046 12.22 14.3372 12.2188ZM17.25 21.6125H17.2501C17.6444 21.6121 18.0225 21.4553 18.3014 21.1764C18.5802 20.8976 18.7371 20.5195 18.7375 20.1251V20.125V12.9375V12.8875H18.6875H17.25H17.2V12.9375V20.075H2.925V5.80005H5.75H5.8V5.75005V4.31255V4.26255H5.75H2.875H2.87495C2.48058 4.26296 2.10248 4.41981 1.82362 4.69867C1.54476 4.97753 1.38791 5.35562 1.3875 5.74999V5.75005L1.3875 20.125L1.3875 20.1251C1.38791 20.5195 1.54476 20.8976 1.82362 21.1764C2.10248 21.4553 2.48058 21.6121 2.87495 21.6125H2.875H17.25Z" fill="#0D1821" stroke="#0D1821" stroke-width="0.1"/>
</svg>
