<svg width="17" height="17" viewBox="0 0 17 17" fill="none" xmlns="http://www.w3.org/2000/svg">
<path d="M15.5834 5.26237V9.51237C15.5834 10.5749 15.2292 11.4603 14.6059 12.0836C13.9897 12.6999 13.1042 13.054 12.0417 13.054V14.5628C12.0417 15.1295 11.4113 15.4695 10.9438 15.1578L7.79175 13.054H6.29009C6.34675 12.8415 6.37508 12.622 6.37508 12.3953C6.37508 11.6728 6.09883 11.007 5.6455 10.5041C5.1355 9.92322 4.37758 9.56196 3.54175 9.56196C2.74841 9.56196 2.02592 9.88781 1.50883 10.4191C1.44508 10.1357 1.41675 9.83112 1.41675 9.51237V5.26237C1.41675 3.13737 2.83341 1.7207 4.95841 1.7207H12.0417C14.1667 1.7207 15.5834 3.13737 15.5834 5.26237Z" stroke="#2F3840" stroke-width="1.2" stroke-miterlimit="10" stroke-linecap="round" stroke-linejoin="round"/>
<path d="M6.37492 12.3958C6.37492 12.9271 6.22618 13.43 5.96409 13.855C5.81534 14.11 5.62409 14.3367 5.40451 14.5208C4.90867 14.9671 4.257 15.2292 3.54159 15.2292C2.50742 15.2292 1.60783 14.6767 1.11908 13.855C0.856992 13.43 0.708252 12.9271 0.708252 12.3958C0.708252 11.5033 1.11909 10.7029 1.77075 10.1858C2.2595 9.79625 2.87575 9.5625 3.54159 9.5625C5.107 9.5625 6.37492 10.8304 6.37492 12.3958Z" stroke="#2F3840" stroke-width="1.2" stroke-miterlimit="10" stroke-linecap="round" stroke-linejoin="round"/>
<path d="M2.43628 12.3953L3.13752 13.0966L4.64628 11.7012" stroke="#2F3840" stroke-width="1.2" stroke-linecap="round" stroke-linejoin="round"/>
<path d="M6.02075 7.4375H10.9791" stroke="#2F3840" stroke-width="1.2" stroke-miterlimit="10" stroke-linecap="round" stroke-linejoin="round"/>
</svg>
