<svg width="16" height="16" viewBox="0 0 16 16" fill="none" xmlns="http://www.w3.org/2000/svg">
<path fill-rule="evenodd" clip-rule="evenodd" d="M4.70465 1.16928C4.77931 0.88306 5.03781 0.68335 5.3336 0.68335H10.3336C10.5338 0.68335 10.7228 0.775566 10.8459 0.933332C10.9691 1.0911 11.0127 1.29682 10.9642 1.491L10.1661 4.68335H13.3336C13.5921 4.68335 13.8261 4.83656 13.9294 5.07353C14.0328 5.31051 13.9858 5.5862 13.8099 5.77564L5.14325 15.109C4.94255 15.3251 4.62147 15.379 4.36118 15.2403C4.10089 15.1015 3.96666 14.8049 4.03421 14.5178L5.17957 9.65002H3.3336C3.13228 9.65002 2.94232 9.55673 2.81923 9.39741C2.69615 9.2381 2.65383 9.03074 2.70465 8.83594L4.70465 1.16928ZM5.83579 1.98335L4.17492 8.35002H6.00027C6.19884 8.35002 6.38652 8.44079 6.50981 8.59645C6.6331 8.75212 6.67847 8.9556 6.63299 9.14889L5.86236 12.424L11.843 5.98335H9.3336C9.13344 5.98335 8.94445 5.89113 8.82127 5.73337C8.69809 5.5756 8.65446 5.36988 8.70301 5.1757L9.5011 1.98335H5.83579Z" fill="white"/>
<path fill-rule="evenodd" clip-rule="evenodd" d="M7.15806 3.0361C7.50633 3.12317 7.71807 3.47608 7.63101 3.82434L6.96434 6.49101C6.87727 6.83928 6.52437 7.05102 6.1761 6.96395C5.82783 6.87689 5.61609 6.52398 5.70315 6.17571L6.36982 3.50905C6.45689 3.16078 6.8098 2.94903 7.15806 3.0361Z" fill="white"/>
</svg>
