<svg t="1661763478648" class="icon" viewBox="0 0 1055 1024" version="1.1" xmlns="http://www.w3.org/2000/svg" p-id="8210" width="65.9375" height="64" xmlns:xlink="http://www.w3.org/1999/xlink">
  <path d="M325.840777 571.435081c-20.943948 0.563366-39.634434-12.029515-47.007897-32.260971L156.433398 202.84479c-4.540065-12.443754-4.407508-26.610744 2.104337-37.778641 4.390939-12.19521 15.144595-21.391327 27.604919-25.931392L522.438835 16.735275c26.478188-9.643495 54.083107 3.231068 63.710032 29.709256L708.581489 382.757282c4.523495 12.460324 4.390939 26.610744-2.120906 37.79521-5.931909 12.758576-15.128026 21.374757-27.58835 25.914822l-336.32932 122.416052c-6.213592 2.253463-11.449579 2.402589-16.702136 2.551715z m-128.364531-401.149515c-4.672621 1.690097-7.224337 4.390939-9.196117 8.616182-1.98835 4.258382-2.419159 7.953398-0.712491 12.609449l122.416051 336.329321c3.396764 9.328673 13.454498 12.725437 21.225631 9.892039l336.329321-122.399483c4.672621-1.706667 7.207767-4.390939 9.196116-8.64932 1.98835-4.241812 2.402589-7.920259 0.695923-12.59288L555.031197 57.778123c-3.396764-9.345243-11.896958-13.305372-21.2422-9.908608l-336.312751 122.416051z" fill="#663C99" p-id="8211"></path>
  <path d="M571.650485 369.866149l-165.546666-168.97657-18.193398 235.834822-26.478188 9.643495 22.700324-300.969838 3.13165-1.143301L598.112104 360.222654l-26.478188 9.643495z m-59.05398-12.029515l-90.304207 32.874046-1.690097 34.133333-26.461618 9.610356 4.639482-59.86589 123.012556-44.771003 42.053593 42.882071-26.461619 9.626925-24.78809-24.489838z m-101.405825-142.94576l106.774369 109.259806-116.765826 42.50097 10.008026-151.760776z m59.352233 100.080259l-39.369321-40.346926-4.225242 56.204013 43.594563-15.857087z" fill="#663C99" p-id="8212"></path>
  <path d="M77.959871 1016.991068c-26.561036 0.215405-47.919223-19.883495-49.775017-46.361683L3.479612 618.409838c-0.927896-13.222524 3.098511-26.809579 12.443754-35.773721 7.572298-10.505113 20.46343-16.387314 33.685954-17.315211l367.115599-25.749126c13.222524-0.927896 26.79301 3.098511 35.757152 12.443754 10.6211 9.229256 16.403883 20.46343 17.33178 33.685955l24.688673 352.219547c0.944466 13.239094-3.098511 26.809579-12.427184 35.790291-9.229256 10.604531-20.46343 16.370744-33.685955 17.298641L81.273786 1016.759094l-3.313915 0.231974zM420.701618 572.528673L51.929061 598.393786c-4.970874 0.347961-8.152233 2.236893-11.234174 5.766214-3.065372 3.54589-4.490356 6.959223-4.142395 11.930097l24.705243 352.219547c0.695922 9.941748 9.428091 15.956505 17.69631 15.37657l367.115599-25.749127c4.954304-0.331392 8.152233-2.220324 11.217605-5.766213 3.081942-3.54589 4.506926-6.959223 4.142395-11.930097l-24.688673-352.219547c-0.347961-4.970874-2.236893-8.152233-5.782783-11.234175-1.888932-3.181359-6.959223-4.490356-10.273139-4.258382z" fill="#663C99" p-id="8213"></path>
  <path d="M153.782265 652.742006l81.025243-5.683365c54.580194-3.827573 101.190421 21.142783 104.78602 72.409061 1.507832 21.490744-7.240906 38.723107-21.209062 53.006084 22.534628 13.37165 35.392621 30.753139 37.132427 55.5578 3.711586 52.906667-40.612039 84.27288-93.535275 87.984466l-87.636505 6.147314-20.546278-269.42136z m156.052298 68.813463c-2.551715-36.386796-35.243495-52.359871-73.287249-49.708738l-52.906667 3.728156 15.542266 221.584984 59.534498-4.175534c38.027184-2.667702 69.70822-24.837799 67.156505-61.208026-2.203754-31.432492-28.284272-47.886084-56.866796-52.525567 21.043366-8.119094 43.031197-26.279353 40.827443-57.695275z m-119.234692-41.490226l46.295404-3.247638c34.729838-2.435728 64.008285 12.128932 66.328026 45.201812 2.087767 29.758964-19.436117 54.547055-60.777217 57.446732l-44.655016 3.13165-7.191197-102.532556z m58.805436 103.891262c41.3411-2.899676 65.996634 16.967249 68.084402 46.726213 2.319741 33.08945-26.279353 51.697087-59.352233 54.016829l-52.923237 3.728155-7.07521-100.875598 51.266278-3.595599z m-30.604013-80.942395l3.711586 52.923236 19.833787-1.391844c23.164272-1.623819 32.260971-13.901877 31.1011-30.438318s-16.619288-23.760777-34.796117-22.484919l-19.850356 1.391845z m7.539159 107.486861l3.711586 52.923236 26.461618-1.855793c18.176828-1.275858 34.017346-12.360906 32.857476-28.897346-1.159871-16.53644-15.078317-25.533722-38.22602-23.909903l-24.80466 1.739806z" fill="#663C99" p-id="8214"></path>
  <path d="M857.80712 1004.033657c-6.743819-0.944466-11.979806-1.275858-18.12712-3.761295L507.211392 867.748867c-26.113657-10.554822-38.010615-38.60712-27.455793-64.720776l134.064466-331.838965c4.970874-12.294628 14.548091-22.716893 26.859288-26.677022 11.41644-6.114175 25.566861-5.749644 37.861488-0.79534l331.838965 134.081035c26.113657 10.554822 38.010615 38.59055 27.472362 64.704207l-134.081035 331.838965c-4.970874 12.294628-14.548091 22.716893-26.859288 26.677023-6.462136 2.75055-13.852168 3.347055-19.088156 3.015663zM659.369838 473.492298c-1.540971-0.613074-3.695016 0.298252-5.849061 1.226149-4.308091 1.822654-7.09178 4.274951-8.947573 8.881294l-134.081036 331.838965c-3.728155 9.229256-0.066278 17.845437 9.162978 21.573592l331.838964 134.081035c4.606343 1.855793 8.28479 1.55754 12.60945-0.265113 4.308091-1.822654 7.09178-4.291521 8.947573-8.897864l134.081035-331.838964c3.728155-9.212686 0.066278-17.845437-9.146407-21.573593L666.097087 474.453333c-1.524401-0.629644-4.606343-1.872362-6.760388-0.961035z" fill="#663C99" p-id="8215"></path>
  <path d="M881.882718 674.66356a110.601942 110.601942 0 0 0-59.484789-56.220583c-56.850227-22.965437-122.184078 6.047896-145.149515 62.881554-22.965437 56.850227 3.877282 123.095405 60.727508 146.060841 26.113657 10.554822 54.414498 11.267314 83.378123 1.524401l6.379288 24.02589c-33.901359 13.106537-68.962589 11.43301-99.699158-0.961035-70.669256-28.565955-105.448803-110.519094-76.899418-181.18835 28.549385-70.685825 110.519094-105.465372 181.18835-76.915987 30.72 12.427184 57.09877 35.574887 71.464595 66.394304l-21.904984 14.398965z m-27.737475 15.575404c-11.317023-20.645696-25.732557-33.619676-44.174499-41.059417-39.932686-16.13877-85.233916 3.081942-102.615404 46.09657-17.381489 43.014628 1.839223 88.315858 41.788479 104.454627 19.966343 8.069385 37.82835 8.119094 62.467314 0.215405l6.379288 24.02589c-26.809579 8.831586-53.56945 8.732168-78.158706-1.19301-53.768285-21.722718-78.78835-83.659806-57.065631-137.42809 21.739288-53.768285 84.28945-80.32932 136.533333-59.219677 24.572686 9.941748 43.892816 28.466537 57.032492 53.420324l-22.203236 10.703948z" fill="#663C99" p-id="8216"></path>
</svg>