<svg width="24" height="24" viewBox="0 0 24 24" fill="none" xmlns="http://www.w3.org/2000/svg">
<path d="M12 16.65L12.0002 16.65C13.233 16.6486 14.4148 16.1582 15.2865 15.2865C16.1582 14.4148 16.6486 13.2329 16.65 12.0002V12C16.65 11.0803 16.3773 10.1813 15.8663 9.4166C15.3554 8.65191 14.6292 8.05591 13.7795 7.70396C12.9298 7.35201 11.9948 7.25993 11.0928 7.43935C10.1908 7.61877 9.36227 8.06164 8.71195 8.71195C8.06164 9.36227 7.61877 10.1908 7.43935 11.0928C7.25993 11.9948 7.35201 12.9298 7.70396 13.7795C8.05591 14.6292 8.65191 15.3554 9.4166 15.8663C10.1813 16.3773 11.0803 16.65 12 16.65ZM10.4166 9.63031C10.8853 9.31716 11.4363 9.15001 11.9999 9.15C12.7556 9.15088 13.48 9.45143 14.0143 9.98573C14.5486 10.5201 14.8492 11.2445 14.85 12.0002C14.85 12.5638 14.6828 13.1147 14.3697 13.5834C14.0565 14.0521 13.6114 14.4173 13.0906 14.6331C12.5699 14.8488 11.9968 14.9052 11.444 14.7952C10.8911 14.6853 10.3833 14.4138 9.98475 14.0153C9.58617 13.6167 9.31473 13.1089 9.20476 12.556C9.0948 12.0032 9.15124 11.4301 9.36695 10.9094C9.58266 10.3886 9.94795 9.94348 10.4166 9.63031Z" fill="#0D1821" stroke="#0D1821" stroke-width="0.3"/>
<path d="M4.49983 21.15H4.5H19.5H19.5002C19.9376 21.1495 20.3569 20.9755 20.6662 20.6662C20.9755 20.3569 21.1495 19.9376 21.15 19.5002V19.5V4.5V4.49983C21.1495 4.06242 20.9755 3.64307 20.6662 3.33378C20.3569 3.02448 19.9376 2.8505 19.5002 2.85H19.5L4.5 2.85L4.49983 2.85C4.06242 2.8505 3.64307 3.02448 3.33378 3.33378C3.02448 3.64307 2.8505 4.06242 2.85 4.49983V4.5L2.85 19.5L2.85 19.5002C2.8505 19.9376 3.02448 20.3569 3.33378 20.6662C3.64307 20.9755 4.06242 21.1495 4.49983 21.15ZM19.3509 19.35H4.65V4.65H19.35L19.3509 19.35Z" fill="#0D1821" stroke="#0D1821" stroke-width="0.3"/>
</svg>
