<svg width="14" height="17" viewBox="0 0 14 17" fill="none" xmlns="http://www.w3.org/2000/svg">
<path d="M11.4546 5.92099L12.2501 4.17099L14.0001 3.37553L12.2501 2.58008L11.4546 0.830078L10.6592 2.58008L8.90918 3.37553L10.6592 4.17099L11.4546 5.92099Z" fill="#7918F5"/>
<path d="M8.48485 5.28418H1.06061C0.477273 5.28418 0 5.76145 0 6.34479V13.769C0 14.3524 0.477273 14.8296 1.06061 14.8296H3.18182L4.77273 16.4205L6.36364 14.8296H8.48485C9.06818 14.8296 9.54545 14.3524 9.54545 13.769V6.34479C9.54545 5.76145 9.06818 5.28418 8.48485 5.28418ZM5.7697 11.0539L4.77273 13.2387L3.77576 11.0539L1.59091 10.0569L3.77576 9.05994L4.77273 6.87509L5.7697 9.05994L7.95455 10.0569L5.7697 11.0539Z" fill="#7918F5"/>
</svg>
