<svg width="16" height="17" viewBox="0 0 16 17" fill="none" xmlns="http://www.w3.org/2000/svg">
<path d="M1.47077 0H14.7892C15.1103 0 15.4183 0.131703 15.6454 0.366137C15.8724 0.60057 16 0.91853 16 1.25007V7.50041H14.7892V5.00028H8.73538V7.50041H7.52462V5.00028H1.47077V9.37552H7.52462V10.6256H1.47077V15.0008H7.52462V16.2509H1.47077C1.14965 16.2509 0.84169 16.1192 0.614627 15.8848C0.387564 15.6503 0.26 15.3324 0.26 15.0008V1.25007C0.26 0.91853 0.387564 0.60057 0.614627 0.366137C0.84169 0.131703 1.14965 0 1.47077 0ZM1.47077 3.75021H14.7892V1.25007H1.47077V3.75021Z" fill="#0D1821"/>
<path d="M9.33984 10.626L10.5506 10.626L10.5506 14.1175L15.1431 9.37598L15.9991 10.2598L11.4066 15.0013L14.7883 15.0013L14.7883 16.2514L9.33984 16.2514L9.33984 10.626Z" fill="#0D1821"/>
</svg>
