<svg width="16" height="16" viewBox="0 0 16 16" fill="none" xmlns="http://www.w3.org/2000/svg">
<path d="M8.00104 9.0896C8.66392 9.0896 9.20129 8.55223 9.20129 7.88934C9.20129 7.22646 8.66392 6.68909 8.00104 6.68909C7.33815 6.68909 6.80078 7.22646 6.80078 7.88934C6.80078 8.55223 7.33815 9.0896 8.00104 9.0896Z" stroke="#0D1821" stroke-width="1.3" stroke-linecap="round" stroke-linejoin="round"/>
<path d="M10.5445 5.34485C10.8793 5.67926 11.1449 6.07638 11.3261 6.51351C11.5073 6.95064 11.6006 7.41919 11.6006 7.89239C11.6006 8.36559 11.5073 8.83414 11.3261 9.27127C11.1449 9.7084 10.8793 10.1055 10.5445 10.4399M5.45546 10.4339C5.12067 10.0995 4.85508 9.7024 4.67387 9.26527C4.49267 8.82814 4.3994 8.35959 4.3994 7.88639C4.3994 7.41319 4.49267 6.94464 4.67387 6.50751C4.85508 6.07038 5.12067 5.67326 5.45546 5.33885M12.2429 3.64648C13.368 4.77189 14 6.29807 14 7.88939C14 9.48072 13.368 11.0069 12.2429 12.1323M3.75709 12.1323C2.63203 11.0069 2 9.48072 2 7.88939C2 6.29807 2.63203 4.77189 3.75709 3.64648" stroke="#0D1821" stroke-width="1.3" stroke-linecap="round" stroke-linejoin="round"/>
</svg>
