<svg width="17" height="18" viewBox="0 0 17 18" fill="none" xmlns="http://www.w3.org/2000/svg">
<path d="M15.4601 0.875H2.14234C1.82124 0.875 1.5133 1.0067 1.28625 1.24112C1.0592 1.47554 0.931641 1.79348 0.931641 2.125V8.375H2.14234V5.875H8.19586V8.375H9.40656V5.875H15.4601V10.25H9.40656V11.5H15.4601V15.875H9.40656V17.125H15.4601C15.7812 17.125 16.0891 16.9933 16.3162 16.7589C16.5432 16.5245 16.6708 16.2065 16.6708 15.875V2.125C16.6708 1.79348 16.5432 1.47554 16.3162 1.24112C16.0891 1.0067 15.7812 0.875 15.4601 0.875ZM15.4601 4.625H2.14234V2.125H15.4601V4.625Z" fill="#161616"/>
<path d="M7.58984 11.5L6.37914 11.5L6.37914 14.9912L1.78695 10.25L0.93098 11.1337L5.52317 15.875L2.14168 15.875L2.14168 17.125L7.58984 17.125L7.58984 11.5Z" fill="#161616"/>
</svg>
