<svg width="20" height="20" viewBox="0 0 20 20" fill="none" xmlns="http://www.w3.org/2000/svg">
<path d="M16 13.7858H10.5833V14.8572H16V13.7858Z" fill="#0D1821"/>
<path d="M8.41667 15.9286H4.08333V3.0716H8.41667V6.28585C8.4175 6.56975 8.5319 6.84179 8.73488 7.04255C8.93787 7.2433 9.21294 7.35644 9.5 7.35726H12.75V11.6429H13.8333V6.28585C13.8353 6.21544 13.8218 6.14545 13.7937 6.08071C13.7656 6.01597 13.7237 5.95802 13.6708 5.91085L9.87917 2.1609C9.83149 2.10857 9.77289 2.06711 9.70743 2.03936C9.64197 2.01161 9.57119 1.99825 9.5 2.00018H4.08333C3.79627 2.001 3.5212 2.11415 3.31822 2.3149C3.11523 2.51565 3.00083 2.78769 3 3.0716V15.9286C3.00083 16.2125 3.11523 16.4845 3.31822 16.6853C3.5212 16.886 3.79627 16.9992 4.08333 17H8.41667V15.9286ZM9.5 3.28588L12.5333 6.28585H9.5V3.28588Z" fill="#0D1821"/>
</svg>
