<svg width="20" height="20" viewBox="0 0 20 20" fill="none" xmlns="http://www.w3.org/2000/svg">
<path d="M3.47077 2H16.7892C17.1103 2 17.4183 2.1317 17.6454 2.36614C17.8724 2.60057 18 2.91853 18 3.25007V11H16.7892V7.00028H10.7354H9.52462H3.47077V11.3755H9.52462V12.6256H3.47077V17.0008H11.5V18.2509H3.47077C3.14965 18.2509 2.84169 18.1192 2.61463 17.8848C2.38756 17.6503 2.26 17.3324 2.26 17.0008V3.25007C2.26 2.91853 2.38756 2.60057 2.61463 2.36614C2.84169 2.1317 3.14965 2 3.47077 2ZM3.47077 5.75021H16.7892V3.25007H3.47077V5.75021Z" fill="#0D1821"/>
<path d="M18.4167 14H13V15.0714H18.4167V14Z" fill="#0D1821"/>
</svg>
