<svg width="20" height="20" viewBox="0 0 20 20" fill="none" xmlns="http://www.w3.org/2000/svg">
<path d="M9.76806 4.12903L7.71849 2.08759C7.69273 2.0591 7.66106 2.03651 7.62567 2.02141C7.59028 2.0063 7.55202 1.99903 7.51354 2.0001H4.58559C4.43042 2.00056 4.28174 2.06215 4.17202 2.17144C4.0623 2.28073 4.00046 2.42882 4 2.58337V9.5826C4.00046 9.73715 4.0623 9.88524 4.17202 9.99453C4.28174 10.1038 4.43042 10.1654 4.58559 10.1659H9.27031C9.42547 10.1654 9.57416 10.1038 9.68388 9.99453C9.7936 9.88524 9.85544 9.73715 9.8559 9.5826V4.33318C9.85697 4.29484 9.84967 4.25674 9.83451 4.22149C9.81934 4.18624 9.79667 4.15469 9.76806 4.12903ZM7.51354 2.70003L9.15319 4.33318H7.51354V2.70003ZM9.27031 9.5826H4.58559V2.58337H6.92795V4.33318C6.9284 4.48773 6.99025 4.63582 7.09997 4.74511C7.20969 4.8544 7.35837 4.91599 7.51354 4.91645H9.27031V9.5826Z" fill="#161616"/>
<path d="M7.49276 2.58545H6.91475L6.60352 5.25318L9.13786 5.16426L9.27125 4.89748L9.13786 4.31948L7.67061 4.00824L7.49276 2.58545Z" fill="white"/>
<path d="M16.8559 4.12903L14.8064 2.08759C14.7806 2.0591 14.749 2.03651 14.7136 2.02141C14.6782 2.0063 14.6399 1.99903 14.6014 2.0001H11.6735C11.5183 2.00056 11.3696 2.06215 11.2599 2.17144C11.1502 2.28073 11.0883 2.42882 11.0879 2.58337V9.5826C11.0883 9.73715 11.1502 9.88524 11.2599 9.99453C11.3696 10.1038 11.5183 10.1654 11.6735 10.1659H16.3582C16.5134 10.1654 16.662 10.1038 16.7718 9.99453C16.8815 9.88524 16.9433 9.73715 16.9438 9.5826V4.33318C16.9449 4.29484 16.9376 4.25674 16.9224 4.22149C16.9072 4.18624 16.8846 4.15469 16.8559 4.12903ZM14.6014 2.70003L16.2411 4.33318H14.6014V2.70003ZM16.3582 9.5826H11.6735V2.58337H14.0158V4.33318C14.0163 4.48773 14.0781 4.63582 14.1879 4.74511C14.2976 4.8544 14.4463 4.91599 14.6014 4.91645H16.3582V9.5826Z" fill="#161616"/>
<path d="M14.5807 2.58545H14.0026L13.6914 5.25318L16.2258 5.16426L16.3591 4.89748L16.2258 4.31948L14.7585 4.00824L14.5807 2.58545Z" fill="white"/>
<path d="M9.76806 12.9113L7.71849 10.8698C7.69273 10.8413 7.66106 10.8187 7.62567 10.8036C7.59028 10.7885 7.55202 10.7813 7.51354 10.7823H4.58559C4.43042 10.7828 4.28174 10.8444 4.17202 10.9537C4.0623 11.063 4.00046 11.211 4 11.3656V18.3648C4.00046 18.5194 4.0623 18.6675 4.17202 18.7768C4.28174 18.886 4.43042 18.9476 4.58559 18.9481H9.27031C9.42547 18.9476 9.57416 18.886 9.68388 18.7768C9.7936 18.6675 9.85544 18.5194 9.8559 18.3648V13.1154C9.85697 13.0771 9.84967 13.039 9.83451 13.0037C9.81934 12.9685 9.79667 12.9369 9.76806 12.9113ZM7.51354 11.4823L9.15319 13.1154H7.51354V11.4823ZM9.27031 18.3648H4.58559V11.3656H6.92795V13.1154C6.9284 13.27 6.99025 13.4181 7.09997 13.5273C7.20969 13.6366 7.35837 13.6982 7.51354 13.6987H9.27031V18.3648Z" fill="#161616"/>
<path d="M7.49276 11.3682H6.91475L6.60352 14.0359L9.13786 13.947L9.27125 13.6802L9.13786 13.1022L7.67061 12.791L7.49276 11.3682Z" fill="white"/>
<path d="M16.8559 12.9108L14.8064 10.8693C14.7806 10.8408 14.749 10.8183 14.7136 10.8031C14.6782 10.788 14.6399 10.7808 14.6014 10.7818H11.6735C11.5183 10.7823 11.3696 10.8439 11.2599 10.9532C11.1502 11.0625 11.0883 11.2106 11.0879 11.3651V18.3643C11.0883 18.5189 11.1502 18.667 11.2599 18.7763C11.3696 18.8856 11.5183 18.9471 11.6735 18.9476H16.3582C16.5134 18.9471 16.662 18.8856 16.7718 18.7763C16.8815 18.667 16.9433 18.5189 16.9438 18.3643V13.1149C16.9449 13.0766 16.9376 13.0385 16.9224 13.0032C16.9072 12.968 16.8846 12.9364 16.8559 12.9108ZM14.6014 11.4818L16.2411 13.1149H14.6014V11.4818ZM16.3582 18.3643H11.6735V11.3651H14.0158V13.1149C14.0163 13.2695 14.0781 13.4176 14.1879 13.5268C14.2976 13.6361 14.4463 13.6977 14.6014 13.6982H16.3582V18.3643Z" fill="#161616"/>
<path d="M14.5807 11.3672H14.0026L13.6914 14.0349L16.2258 13.946L16.3591 13.6792L16.2258 13.1012L14.7585 12.79L14.5807 11.3672Z" fill="white"/>
</svg>
