<svg width="20" height="20" viewBox="0 0 20 20" fill="none" xmlns="http://www.w3.org/2000/svg">
<path d="M13.7692 17.0771C13.1302 17.0771 12.5056 16.8876 11.9743 16.5326C11.443 16.1776 11.0289 15.673 10.7844 15.0827C10.5399 14.4924 10.4759 13.8428 10.6005 13.216C10.7252 12.5893 11.0329 12.0137 11.4847 11.5618C11.9366 11.11 12.5122 10.8023 13.1389 10.6776C13.7656 10.553 14.4152 10.617 15.0056 10.8615C15.5959 11.106 16.1005 11.5201 16.4555 12.0514C16.8105 12.5827 17 13.2074 17 13.8463C16.999 14.7029 16.6584 15.5241 16.0527 16.1298C15.447 16.7355 14.6258 17.0762 13.7692 17.0771ZM13.7692 11.6925C13.3432 11.6925 12.9268 11.8188 12.5726 12.0555C12.2184 12.2921 11.9424 12.6285 11.7793 13.0221C11.6163 13.4157 11.5737 13.8487 11.6568 14.2665C11.7399 14.6843 11.945 15.0681 12.2462 15.3693C12.5475 15.6706 12.9312 15.8757 13.349 15.9588C13.7668 16.0419 14.1999 15.9993 14.5935 15.8362C14.987 15.6732 15.3234 15.3971 15.5601 15.043C15.7968 14.6888 15.9231 14.2723 15.9231 13.8463C15.9224 13.2753 15.6953 12.7278 15.2915 12.324C14.8877 11.9203 14.3403 11.6931 13.7692 11.6925Z" fill="#0D1821"/>
<path d="M9.46154 16.0002H4.07692V3.07711H8.38462V6.30788C8.38544 6.59324 8.49917 6.86668 8.70095 7.06847C8.90273 7.27025 9.17617 7.38398 9.46154 7.3848H12.6923V9.00019H13.7692V6.30788C13.7712 6.23711 13.7577 6.16676 13.7298 6.10169C13.7019 6.03661 13.6603 5.97837 13.6077 5.93095L9.83846 2.16172C9.79106 2.10913 9.73281 2.06745 9.66774 2.03956C9.60266 2.01167 9.53231 1.99824 9.46154 2.00019H4.07692C3.79156 2.00101 3.51812 2.11473 3.31633 2.31652C3.11455 2.5183 3.00082 2.79174 3 3.07711V16.0002C3.00082 16.2856 3.11455 16.559 3.31633 16.7608C3.51812 16.9626 3.79156 17.0763 4.07692 17.0771H9.46154V16.0002ZM9.46154 3.29249L12.4769 6.30788H9.46154V3.29249Z" fill="#0D1821"/>
<path d="M4.07715 17.077L7.93792 17.077L6.54869 18.4716L7.30792 19.2308L10.0002 16.5385L7.30792 13.8462L6.54869 14.6054L7.93792 16L4.07715 16V17.077Z" fill="#0D1821"/>
</svg>
