<svg width="17" height="16" viewBox="0 0 17 16" fill="none" xmlns="http://www.w3.org/2000/svg">
<path fill-rule="evenodd" clip-rule="evenodd" d="M2.26349 2.76939C2.34884 2.32291 2.73932 2 3.19389 2H13.884C14.3427 2 14.7355 2.32865 14.8164 2.78015L15.9849 9.2999C16.0888 9.87992 15.6437 10.4129 15.0548 10.4142V13.934C15.0548 14.4572 14.6307 14.8812 14.1075 14.8812H2.9715C2.44835 14.8812 2.02425 14.4572 2.02425 13.934V10.4142H1.94754C1.35307 10.4142 0.905525 9.87304 1.01715 9.28914L2.26349 2.76939ZM2.8235 8.74264H3.69586V13.2096H13.3832V8.74264H14.1868L13.2779 3.67161H3.7929L2.8235 8.74264Z" fill="white"/>
<path fill-rule="evenodd" clip-rule="evenodd" d="M5.58252 7.43785C5.58252 7.13011 5.83199 6.88065 6.13972 6.88065H10.7637C11.0715 6.88065 11.3209 7.13011 11.3209 7.43785C11.3209 7.74558 11.0715 7.99505 10.7637 7.99505H6.13972C5.83199 7.99505 5.58252 7.74558 5.58252 7.43785Z" fill="white"/>
<path fill-rule="evenodd" clip-rule="evenodd" d="M5.58252 9.41923C5.58252 9.1115 5.83199 8.86203 6.13972 8.86203H10.7637C11.0715 8.86203 11.3209 9.1115 11.3209 9.41923C11.3209 9.72697 11.0715 9.97644 10.7637 9.97644H6.13972C5.83199 9.97644 5.58252 9.72697 5.58252 9.41923Z" fill="white"/>
<path fill-rule="evenodd" clip-rule="evenodd" d="M8.71887 5.39211C8.93647 5.17451 9.28927 5.17451 9.50687 5.39211L11.1583 7.04355C11.3759 7.26115 11.3759 7.61395 11.1583 7.83155C10.9407 8.04916 10.5879 8.04916 10.3703 7.83155L8.71887 6.18012C8.50126 5.96252 8.50126 5.60972 8.71887 5.39211Z" fill="white"/>
<path fill-rule="evenodd" clip-rule="evenodd" d="M5.74572 9.02523C5.96332 8.80763 6.31612 8.80763 6.53373 9.02523L8.18516 10.6767C8.40276 10.8943 8.40276 11.2471 8.18516 11.4647C7.96756 11.6823 7.61476 11.6823 7.39716 11.4647L5.74572 9.81324C5.52812 9.59563 5.52812 9.24283 5.74572 9.02523Z" fill="white"/>
</svg>
