<svg width="24" height="24" viewBox="0 0 24 24" fill="none" xmlns="http://www.w3.org/2000/svg">
<path d="M8.08896 6.46072H15.1408C15.3385 7.31042 15.814 8.06379 16.4887 8.58636C17.201 9.13801 18.084 9.39262 18.9664 9.29879C19.8488 9.20498 20.6646 8.76984 21.2566 8.08057C21.8485 7.39153 22.175 6.49729 22.175 5.57143C22.175 4.64558 21.8485 3.75134 21.2566 3.0623C20.6646 2.37303 19.8488 1.93789 18.9664 1.84407C18.084 1.75025 17.201 2.00486 16.4887 2.55651C15.814 3.07908 15.3385 3.83244 15.1408 4.68215H8.08896C7.04968 4.68215 6.05489 5.11678 5.32288 5.88726C4.59116 6.65744 4.18155 7.70019 4.18155 8.78572C4.18155 9.87124 4.59116 10.914 5.32288 11.6842C6.05489 12.4547 7.04968 12.8893 8.08896 12.8893H15.5538C16.1343 12.8893 16.693 13.1319 17.1064 13.5671C17.5201 14.0025 17.754 14.5948 17.754 15.2143C17.754 15.8337 17.5201 16.4261 17.1064 16.8615C16.693 17.2966 16.1343 17.5393 15.5538 17.5393H9.85924C9.66154 16.6896 9.18598 15.9362 8.51128 15.4136C7.79903 14.862 6.91599 14.6074 6.03356 14.7012C5.15123 14.795 4.33541 15.2302 3.74338 15.9194C3.15154 16.6085 2.825 17.5027 2.825 18.4286C2.825 19.3544 3.15154 20.2487 3.74338 20.9377C4.33541 21.627 5.15123 22.0621 6.03356 22.1559C6.91599 22.2498 7.79903 21.9951 8.51128 21.4435C9.18598 20.9209 9.66154 20.1676 9.85924 19.3179H15.5538C16.5931 19.3179 17.5879 18.8832 18.3199 18.1127C19.0516 17.3426 19.4612 16.2998 19.4612 15.2143C19.4612 14.1288 19.0516 13.086 18.3199 12.3158C17.5879 11.5454 16.5931 11.1107 15.5538 11.1107H8.08896C7.50842 11.1107 6.94972 10.8681 6.53633 10.4329C6.12266 9.99753 5.88879 9.40516 5.88879 8.78572C5.88879 8.16628 6.12266 7.5739 6.53633 7.13849C6.94972 6.70338 7.50842 6.46072 8.08896 6.46072ZM18.6076 3.60358C18.9736 3.60358 19.3321 3.71776 19.638 3.93286C19.9439 4.14804 20.1837 4.45485 20.3256 4.81548C20.4676 5.17617 20.5048 5.57354 20.4324 5.95699C20.3599 6.34041 20.1813 6.69144 19.9203 6.96613C19.6594 7.24072 19.3281 7.42662 18.9689 7.50183C18.6097 7.57702 18.2374 7.53852 17.8984 7.39076C17.5594 7.24294 17.2681 6.99196 17.0626 6.66815C16.857 6.34426 16.7467 5.96258 16.7467 5.57143C16.7467 5.04672 16.9448 4.54518 17.2949 4.17674C17.6446 3.80861 18.117 3.60358 18.6076 3.60358ZM6.39241 20.3964C6.02642 20.3964 5.66786 20.2822 5.36202 20.0671C5.05606 19.852 4.81629 19.5452 4.67436 19.1845C4.53242 18.8238 4.49516 18.4265 4.56762 18.043C4.64008 17.6596 4.81874 17.3086 5.07971 17.0339C5.34059 16.7593 5.67186 16.5734 6.0311 16.4982C6.39025 16.423 6.76264 16.4615 7.10156 16.6092C7.44061 16.7571 7.73186 17.008 7.93743 17.3319C8.14304 17.6557 8.25327 18.0374 8.25327 18.4286C8.25327 18.9533 8.05516 19.4548 7.70511 19.8233C7.35536 20.1914 6.88297 20.3964 6.39241 20.3964Z" fill="#0D1821" stroke="#0D1821" stroke-width="0.35"/>
</svg>
