<svg width="180" height="180" viewBox="0 0 180 180" fill="none" xmlns="http://www.w3.org/2000/svg">
<rect width="180" height="180" fill="#FFFEFE"/>
<path fill-rule="evenodd" clip-rule="evenodd" d="M134.793 35.6173H48.9102V142.971H134.793V35.6173ZM38.1748 24.8819V153.706H145.528V24.8819H38.1748Z" fill="#D8DCDE"/>
<path fill-rule="evenodd" clip-rule="evenodd" d="M91.8533 109.873C103.219 109.873 112.432 100.66 112.432 89.2943C112.432 77.9287 103.219 68.7151 91.8533 68.7151C80.4877 68.7151 71.2741 77.9287 71.2741 89.2943C71.2741 100.66 80.4877 109.873 91.8533 109.873ZM91.8533 120.427C109.047 120.427 122.986 106.488 122.986 89.2943C122.986 72.1003 109.047 58.1617 91.8533 58.1617C74.6592 58.1617 60.7207 72.1003 60.7207 89.2943C60.7207 106.488 74.6592 120.427 91.8533 120.427Z" fill="#7918F5"/>
<path d="M119.765 12H159.486V48.5002H119.765V12Z" fill="white"/>
<path fill-rule="evenodd" clip-rule="evenodd" d="M136.94 35.7957C139.798 35.7957 141.674 33.5445 141.674 31.3226C141.674 29.1007 139.798 26.8495 136.94 26.8495C134.083 26.8495 132.206 29.1007 132.206 31.3226C132.206 33.5445 134.083 35.7957 136.94 35.7957ZM136.94 42.058C142.869 42.058 147.676 37.2516 147.676 31.3226C147.676 25.3936 142.869 20.5872 136.94 20.5872C131.011 20.5872 126.205 25.3936 126.205 31.3226C126.205 37.2516 131.011 42.058 136.94 42.058Z" fill="#0D1821"/>
<path d="M60.7207 168.737L20.9999 168.737L20.9998 130.09L60.7207 130.09L60.7207 168.737Z" fill="white"/>
<path fill-rule="evenodd" clip-rule="evenodd" d="M41.3984 142.793C38.928 142.793 36.9254 144.795 36.9254 147.266C36.9254 149.736 38.928 151.739 41.3984 151.739C43.8688 151.739 45.8715 149.736 45.8715 147.266C45.8715 144.795 43.8688 142.793 41.3984 142.793ZM41.3984 136.53C35.4694 136.53 30.6631 141.337 30.6631 147.266C30.6631 153.195 35.4694 158.001 41.3984 158.001C47.3274 158.001 52.1338 153.195 52.1338 147.266C52.1338 141.337 47.3274 136.53 41.3984 136.53Z" fill="#0D1821"/>
</svg>
