<?xml version="1.0" standalone="no"?><!DOCTYPE svg PUBLIC "-//W3C//DTD SVG 1.1//EN" "http://www.w3.org/Graphics/SVG/1.1/DTD/svg11.dtd"><svg t="1660484119966" class="icon" viewBox="0 0 1024 1024" version="1.1" xmlns="http://www.w3.org/2000/svg" p-id="6904" xmlns:xlink="http://www.w3.org/1999/xlink" width="200" height="200"><defs><style type="text/css"></style></defs><path d="M216.803556 825.784889c-30.833778 0-53.248-25.329778-53.248-56.448V527.644444a14.222222 14.222222 0 1 0-28.444445 0v241.692445c0 46.805333 35.171556 84.892444 81.692445 84.892444a14.222222 14.222222 0 1 0 0-28.444444zM286.208 826.311111h-14.222222a14.222222 14.222222 0 1 0 0 28.444445h14.222222a14.222222 14.222222 0 1 0 0-28.444445z" fill="#767676" p-id="6905"></path><path d="M889.856 484.977778h-57.841778v-130.033778c0-53.76-49.564444-97.507556-103.936-97.507556h-41.258666C675.783111 152.092444 586.439111 69.688889 478.222222 69.688889c-108.231111 0-197.560889 82.403556-208.611555 187.747555H128.796444c-54.371556 0-93.240889 43.747556-93.240888 97.507556v499.726222c0 54.940444 38.883556 99.640889 93.240888 99.640889h599.281778c54.357333 0 103.921778-44.700444 103.936-99.640889V740.977778h57.841778a98.602667 98.602667 0 0 0 98.588444-98.588445h0.014223v-58.837333a98.602667 98.602667 0 0 0-98.602667-98.574222zM478.222222 126.577778c76.8 0 140.373333 56.988444 151.111111 130.858666H327.096889c10.723556-73.870222 74.296889-130.858667 151.125333-130.858666z m296.903111 728.092444c0 23.168-24.433778 42.752-47.047111 42.752H128.796444c-22.599111 0-36.352-19.584-36.352-42.752V354.929778c0-22.769778 12.970667-40.618667 36.352-40.618667h599.281778c23.395556 0 47.047111 17.834667 47.047111 40.618667V484.977778h-86.314666a98.588444 98.588444 0 0 0-98.588445 98.574222v58.837333a98.602667 98.602667 0 0 0 98.588445 98.588445h86.314666v113.692444z m156.444445-212.280889a41.713778 41.713778 0 0 1-41.713778 41.699556H688.810667a41.699556 41.699556 0 0 1-41.699556-41.699556v-58.837333a41.699556 41.699556 0 0 1 41.699556-41.699556h201.059555a41.699556 41.699556 0 0 1 41.699556 41.699556h0.014222v58.837333z" fill="#767676" p-id="6906"></path><path d="M718.819556 611.896889m-27.264 0a27.264 27.264 0 1 0 54.528 0 27.264 27.264 0 1 0-54.528 0Z" fill="#767676" p-id="6907"></path></svg>