<svg xmlns="http://www.w3.org/2000/svg" width="59" height="59" viewBox="0 0 59 59" fill="none">
  <g clip-path="url(#clip0_420_7516)">
    <path fill-rule="evenodd" clip-rule="evenodd" d="M32.45 47.2C34.0148 47.2 35.5155 47.8216 36.6219 48.9281C37.7284 50.0345 38.35 51.5352 38.35 53.1C38.35 54.6648 37.7284 56.1655 36.6219 57.2719C35.5155 58.3784 34.0148 59 32.45 59C30.8852 59 29.3845 58.3784 28.2781 57.2719C27.1716 56.1655 26.55 54.6648 26.55 53.1C26.55 51.5352 27.1716 50.0345 28.2781 48.9281C29.3845 47.8216 30.8852 47.2 32.45 47.2ZM13.986 38.35C15.9419 38.35 17.8178 39.127 19.2009 40.5101C20.5839 41.8932 21.361 43.769 21.361 45.725C21.361 47.681 20.5839 49.5568 19.2009 50.9399C17.8178 52.323 15.9419 53.1 13.986 53.1C12.03 53.1 10.1541 52.323 8.77104 50.9399C7.38796 49.5568 6.61095 47.681 6.61095 45.725C6.61095 43.769 7.38796 41.8932 8.77104 40.5101C10.1541 39.127 12.03 38.35 13.986 38.35ZM48.1411 39.825C49.7058 39.825 51.2065 40.4466 52.313 41.5531C53.4194 42.6595 54.041 44.1602 54.041 45.725C54.041 47.2898 53.4194 48.7905 52.313 49.8969C51.2065 51.0034 49.7058 51.625 48.1411 51.625C46.5763 51.625 45.0756 51.0034 43.9691 49.8969C42.8627 48.7905 42.2411 47.2898 42.2411 45.725C42.2411 44.1602 42.8627 42.6595 43.9691 41.5531C45.0756 40.4466 46.5763 39.825 48.1411 39.825ZM54.575 27.4911C55.7486 27.4911 56.8741 27.9573 57.7039 28.7871C58.5338 29.617 59 30.7425 59 31.9161C59 33.0896 58.5338 34.2152 57.7039 35.045C56.8741 35.8748 55.7486 36.3411 54.575 36.3411C53.4014 36.3411 52.2759 35.8748 51.4461 35.045C50.6162 34.2152 50.15 33.0896 50.15 31.9161C50.15 30.7425 50.6162 29.617 51.4461 28.7871C52.2759 27.9573 53.4014 27.4911 54.575 27.4911ZM7.375 17.7C9.33097 17.7 11.2068 18.477 12.5899 19.8601C13.973 21.2432 14.75 23.119 14.75 25.075C14.75 27.031 13.973 28.9068 12.5899 30.2899C11.2068 31.673 9.33097 32.45 7.375 32.45C5.41903 32.45 3.54317 31.673 2.16009 30.2899C0.777007 28.9068 0 27.031 0 25.075C0 23.119 0.777007 21.2432 2.16009 19.8601C3.54317 18.477 5.41903 17.7 7.375 17.7ZM52.4687 15.3607C53.2511 15.3607 54.0014 15.6715 54.5547 16.2247C55.1079 16.7779 55.4187 17.5283 55.4187 18.3106C55.4187 19.093 55.1079 19.8434 54.5547 20.3966C54.0014 20.9498 53.2511 21.2607 52.4687 21.2607C51.6863 21.2607 50.936 20.9498 50.3827 20.3966C49.8295 19.8434 49.5187 19.093 49.5187 18.3106C49.5187 17.5283 49.8295 16.7779 50.3827 16.2247C50.936 15.6715 51.6863 15.3607 52.4687 15.3607ZM23.6 0C25.9472 0 28.1982 0.932408 29.8579 2.5921C31.5176 4.2518 32.45 6.50283 32.45 8.85C32.45 11.1972 31.5176 13.4482 29.8579 15.1079C28.1982 16.7676 25.9472 17.7 23.6 17.7C21.2528 17.7 19.0018 16.7676 17.3421 15.1079C15.6824 13.4482 14.75 11.1972 14.75 8.85C14.75 6.50283 15.6824 4.2518 17.3421 2.5921C19.0018 0.932408 21.2528 0 23.6 0ZM45.725 8.85C46.1162 8.85 46.4914 9.0054 46.768 9.28202C47.0446 9.55863 47.2 9.93381 47.2 10.325C47.2 10.7162 47.0446 11.0914 46.768 11.368C46.4914 11.6446 46.1162 11.8 45.725 11.8C45.3338 11.8 44.9586 11.6446 44.682 11.368C44.4054 11.0914 44.25 10.7162 44.25 10.325C44.25 9.93381 44.4054 9.55863 44.682 9.28202C44.9586 9.0054 45.3338 8.85 45.725 8.85Z" fill="#FF8D5B"/>
  </g>
  <defs>
    <clipPath id="clip0_420_7516">
      <rect width="59" height="59" fill="white"/>
    </clipPath>
  </defs>
</svg>
