<svg width="24" height="24" viewBox="0 0 24 24" fill="none" xmlns="http://www.w3.org/2000/svg">
<path d="M4 10H19.9998" stroke="#FF5C00" stroke-width="2" stroke-linecap="square"/>
<path d="M5.5 16H9.5M12 16H13.5" stroke="#FFA800" stroke-width="2" stroke-linecap="round"/>
<path d="M2 12C2 8.229 2 6.343 3.172 5.172C4.343 4 6.229 4 10 4H14C17.771 4 19.657 4 20.828 5.172C22 6.343 22 8.229 22 12C22 15.771 22 17.657 20.828 18.828C19.657 20 17.771 20 14 20H10C6.229 20 4.343 20 3.172 18.828C2 17.657 2 15.771 2 12Z" stroke="#FF5C00" stroke-width="2"/>
</svg>
