<svg xmlns="http://www.w3.org/2000/svg" width="111" height="95" viewBox="0 0 111 95" fill="none">
  <rect x="16.1152" y="46.7241" width="78.0558" height="24.7222" rx="12.3611" transform="rotate(-31.344 16.1152 46.7241)" fill="#F6F6F6"/>
  <rect x="28.3857" y="72.7939" width="70.6058" height="26.5412" rx="13.2706" transform="rotate(-36.4905 28.3857 72.7939)" fill="#F6F6F6"/>
  <rect x="3.5" y="37" width="2" height="9" rx="1" fill="#32363F"/>
  <rect y="42.5" width="2" height="9" rx="1" transform="rotate(-90 0 42.5)" fill="#32363F"/>
  <rect x="25.5" y="11.3516" width="1.91157" height="5.01423" rx="0.955785" transform="rotate(-45 25.5 11.3516)" fill="#D9D9D9"/>
  <rect x="29.0459" y="10" width="1.91157" height="5.01423" rx="0.955785" transform="rotate(45 29.0459 10)" fill="#D9D9D9"/>
  <rect x="13.5" y="81.3516" width="1.91157" height="5.01423" rx="0.955785" transform="rotate(-45 13.5 81.3516)" fill="#D9D9D9"/>
  <rect x="17.0459" y="80" width="1.91157" height="5.01423" rx="0.955785" transform="rotate(45 17.0459 80)" fill="#D9D9D9"/>
  <rect x="99.5" width="3" height="9" rx="1.5" fill="#32363F"/>
  <rect x="96.5" y="6" width="3" height="9" rx="1.5" transform="rotate(-90 96.5 6)" fill="#32363F"/>
  <rect x="104.5" y="69" width="3" height="9" rx="1.5" fill="#32363F"/>
  <rect x="101.5" y="75" width="3" height="9" rx="1.5" transform="rotate(-90 101.5 75)" fill="#32363F"/>
  <circle cx="60.2873" cy="30.2873" r="19.2873" fill="#919191" stroke="black" stroke-width="2"/>
  <circle cx="60.2873" cy="30.2873" r="14.5138" fill="#E8E8E8" stroke="black" stroke-width="2"/>
  <path d="M51.9336 25.4085L60.2872 20.3428L68.6408 25.4085V34.7606L60.2872 39.4367L51.9336 34.7606V25.4085Z" fill="#BEBEBE" stroke="black" stroke-width="2" stroke-linecap="round"/>
  <path d="M51.9339 82L49.1494 64.895H71.0279L68.2433 82H51.9339Z" fill="#919191"/>
  <path d="M41.5908 55.348L42.7842 52.9613H51.1378L50.74 56.9392H43.182L41.5908 55.348Z" fill="#BEBEBE"/>
  <path d="M68.2428 54.5524L70.6295 52.9613L76.9941 52.5635L78.5853 53.7568L78.1875 56.9392H70.6295L68.2428 54.5524Z" fill="#BEBEBE"/>
  <path d="M60.0888 64.0993H71.4258L68.6413 81.9998H51.5363L48.7518 64.0993H60.0888ZM60.0888 64.0993V60.1213M60.0888 49.7788V60.1213M51.5363 54.5523C55.5904 54.8282 57.4348 56.1225 60.0888 60.1213M51.5363 54.5523C51.2375 55.9916 50.7407 57.3368 49.5474 57.3368H43.9783C42.7849 57.3368 42.502 56.6842 41.9894 56.1434C41.1058 55.2114 41.3005 55.1346 41.9894 53.7567C42.3871 52.9611 42.3871 52.5633 43.9783 52.5633H49.5474C50.7407 52.5633 51.0231 53.2573 51.5363 54.5523ZM60.0888 60.1213C62.5406 56.6086 64.1805 55.2563 67.8457 54.5523M67.8457 54.5523C68.9624 53.4767 69.8346 52.5633 71.028 52.5633H75.8015C77.3926 52.5633 77.7904 52.9611 78.586 54.1545C78.9838 54.9501 79.2148 55.3665 78.586 56.1434C77.8866 56.8817 77.3926 57.3368 75.8015 57.3368H71.028C69.4368 57.3368 68.6675 55.9923 67.8457 54.5523Z" stroke="black" stroke-width="2" stroke-linecap="round"/>
</svg>
