<svg width="112" height="24" viewBox="0 0 112 24" fill="none" xmlns="http://www.w3.org/2000/svg">
<path d="M32.9141 12.7578H29.9531V11.2031H32.9141C33.4297 11.2031 33.8464 11.1198 34.1641 10.9531C34.4818 10.7865 34.7135 10.5573 34.8594 10.2656C35.0104 9.96875 35.0859 9.63021 35.0859 9.25C35.0859 8.89062 35.0104 8.55469 34.8594 8.24219C34.7135 7.92448 34.4818 7.66927 34.1641 7.47656C33.8464 7.28385 33.4297 7.1875 32.9141 7.1875H30.5547V17H28.5938V5.625H32.9141C33.7943 5.625 34.5417 5.78125 35.1562 6.09375C35.776 6.40104 36.2474 6.82812 36.5703 7.375C36.8932 7.91667 37.0547 8.53646 37.0547 9.23438C37.0547 9.96875 36.8932 10.599 36.5703 11.125C36.2474 11.651 35.776 12.0547 35.1562 12.3359C34.5417 12.6172 33.7943 12.7578 32.9141 12.7578ZM43.3047 7.14062L39.9062 17H37.8516L42.1328 5.625H43.4453L43.3047 7.14062ZM46.1484 17L42.7422 7.14062L42.5938 5.625H43.9141L48.2109 17H46.1484ZM45.9844 12.7812V14.3359H39.7969V12.7812H45.9844ZM50.9297 5.625L53.5703 11.0547L56.2109 5.625H58.3828L54.5547 12.8125V17H52.5781V12.8125L48.75 5.625H50.9297ZM70.375 11.8594H67.4766L67.4609 10.4297H69.9922C70.4193 10.4297 70.7812 10.3672 71.0781 10.2422C71.3802 10.112 71.6094 9.92708 71.7656 9.6875C71.9219 9.44271 72 9.14844 72 8.80469C72 8.42448 71.9271 8.11458 71.7812 7.875C71.6354 7.63542 71.4115 7.46094 71.1094 7.35156C70.8125 7.24219 70.4323 7.1875 69.9688 7.1875H68.0703V17H66.1094V5.625H69.9688C70.5938 5.625 71.151 5.6849 71.6406 5.80469C72.1354 5.92448 72.5547 6.11198 72.8984 6.36719C73.2474 6.61719 73.5104 6.9349 73.6875 7.32031C73.8698 7.70573 73.9609 8.16406 73.9609 8.69531C73.9609 9.16406 73.849 9.59375 73.625 9.98438C73.401 10.3698 73.0703 10.6849 72.6328 10.9297C72.1953 11.1745 71.651 11.3203 71 11.3672L70.375 11.8594ZM70.2891 17H66.8594L67.7422 15.4453H70.2891C70.7318 15.4453 71.1016 15.3724 71.3984 15.2266C71.6953 15.0755 71.9167 14.8698 72.0625 14.6094C72.2135 14.3438 72.2891 14.0339 72.2891 13.6797C72.2891 13.3099 72.224 12.9896 72.0938 12.7188C71.9635 12.4427 71.7578 12.2318 71.4766 12.0859C71.1953 11.9349 70.8281 11.8594 70.375 11.8594H68.1719L68.1875 10.4297H71.0547L71.5 10.9688C72.125 10.9896 72.638 11.1276 73.0391 11.3828C73.4453 11.638 73.7474 11.9688 73.9453 12.375C74.1432 12.7812 74.2422 13.2188 74.2422 13.6875C74.2422 14.4115 74.0833 15.0182 73.7656 15.5078C73.4531 15.9974 73.0026 16.3698 72.4141 16.625C71.8255 16.875 71.1172 17 70.2891 17ZM79.5625 5.625V17H77.6016V5.625H79.5625ZM90.375 15.4453V17H84.6641V15.4453H90.375ZM85.2109 5.625V17H83.25V5.625H85.2109ZM100.266 15.4453V17H94.5547V15.4453H100.266ZM95.1016 5.625V17H93.1406V5.625H95.1016ZM109.016 14.0703C109.016 13.8359 108.979 13.6276 108.906 13.4453C108.839 13.263 108.716 13.0964 108.539 12.9453C108.362 12.7943 108.112 12.6484 107.789 12.5078C107.471 12.362 107.065 12.2135 106.57 12.0625C106.029 11.8958 105.529 11.7109 105.07 11.5078C104.617 11.2995 104.221 11.0599 103.883 10.7891C103.544 10.513 103.281 10.1979 103.094 9.84375C102.906 9.48438 102.812 9.07031 102.812 8.60156C102.812 8.13802 102.909 7.71615 103.102 7.33594C103.299 6.95573 103.578 6.6276 103.938 6.35156C104.302 6.07031 104.732 5.85417 105.227 5.70312C105.721 5.54688 106.268 5.46875 106.867 5.46875C107.711 5.46875 108.438 5.625 109.047 5.9375C109.661 6.25 110.133 6.66927 110.461 7.19531C110.794 7.72135 110.961 8.30208 110.961 8.9375H109.016C109.016 8.5625 108.935 8.23177 108.773 7.94531C108.617 7.65365 108.378 7.42448 108.055 7.25781C107.737 7.09115 107.333 7.00781 106.844 7.00781C106.38 7.00781 105.995 7.07812 105.688 7.21875C105.38 7.35938 105.151 7.54948 105 7.78906C104.849 8.02865 104.773 8.29948 104.773 8.60156C104.773 8.8151 104.823 9.01042 104.922 9.1875C105.021 9.35938 105.172 9.52083 105.375 9.67188C105.578 9.81771 105.833 9.95573 106.141 10.0859C106.448 10.2161 106.81 10.3411 107.227 10.4609C107.857 10.6484 108.406 10.8568 108.875 11.0859C109.344 11.3099 109.734 11.5651 110.047 11.8516C110.359 12.138 110.594 12.4635 110.75 12.8281C110.906 13.1875 110.984 13.5964 110.984 14.0547C110.984 14.5339 110.888 14.9661 110.695 15.3516C110.503 15.7318 110.227 16.0573 109.867 16.3281C109.513 16.5938 109.086 16.7995 108.586 16.9453C108.091 17.0859 107.539 17.1562 106.93 17.1562C106.383 17.1562 105.844 17.0833 105.312 16.9375C104.786 16.7917 104.307 16.5703 103.875 16.2734C103.443 15.9714 103.099 15.5964 102.844 15.1484C102.589 14.6953 102.461 14.1667 102.461 13.5625H104.422C104.422 13.9323 104.484 14.2474 104.609 14.5078C104.74 14.7682 104.919 14.9818 105.148 15.1484C105.378 15.3099 105.643 15.4297 105.945 15.5078C106.253 15.5859 106.581 15.625 106.93 15.625C107.388 15.625 107.771 15.5599 108.078 15.4297C108.391 15.2995 108.625 15.1172 108.781 14.8828C108.938 14.6484 109.016 14.3776 109.016 14.0703Z" fill="black"/>
<path d="M4 10H19.9998" stroke="#FF5C00" stroke-width="2" stroke-linecap="square"/>
<path d="M5.5 16H9.5M12 16H13.5" stroke="#FFA800" stroke-width="2" stroke-linecap="round"/>
<path d="M2 12C2 8.229 2 6.343 3.172 5.172C4.343 4 6.229 4 10 4H14C17.771 4 19.657 4 20.828 5.172C22 6.343 22 8.229 22 12C22 15.771 22 17.657 20.828 18.828C19.657 20 17.771 20 14 20H10C6.229 20 4.343 20 3.172 18.828C2 17.657 2 15.771 2 12Z" stroke="#FF5C00" stroke-width="2"/>
</svg>
